<?xml version="1.0" encoding="UTF-8"?>
<svg id="b" data-name="Layer 2" xmlns="http://www.w3.org/2000/svg" viewBox="0 0 37.46 37.46">
  <g id="c" data-name="Layer 1">
    <path d="M22.02,2.46c-.97-3.28-5.61-3.28-6.58,0l-.23,.8c-.53,1.82-2.44,2.85-4.26,2.32-.23-.07-.46-.16-.67-.28l-.73-.4c-3-1.63-6.29,1.65-4.65,4.65l.4,.73c1.04,1.92,.05,4.31-2.04,4.93l-.8,.23c-3.28,.97-3.28,5.61,0,6.58l.8,.23c1.82,.53,2.85,2.44,2.32,4.26-.07,.23-.16,.46-.28,.67l-.4,.73c-1.63,3,1.65,6.29,4.65,4.65l.73-.4c1.66-.91,3.74-.29,4.65,1.37,.12,.21,.21,.44,.28,.67l.23,.8c.97,3.28,5.61,3.28,6.58,0l.23-.8c.53-1.82,2.44-2.85,4.26-2.32,.23,.07,.46,.16,.67,.28l.73,.4c3,1.63,6.29-1.65,4.65-4.65l-.4-.73c-.91-1.66-.29-3.74,1.37-4.65,.21-.12,.44-.21,.67-.28l.8-.23c3.28-.97,3.28-5.61,0-6.58l-.8-.23c-1.82-.53-2.85-2.44-2.32-4.26,.07-.23,.16-.46,.28-.67l.4-.73c1.63-3-1.65-6.29-4.65-4.65l-.73,.4c-1.66,.91-3.74,.29-4.65-1.37-.12-.21-.21-.44-.28-.67l-.23-.8Zm-3.29,23.13c-3.79,0-6.86-3.07-6.86-6.86s3.07-6.86,6.86-6.86c3.79,0,6.86,3.07,6.86,6.86,0,3.79-3.07,6.85-6.86,6.86h0Z"/>
  </g>
</svg>