<?xml version="1.0" encoding="UTF-8"?>
<svg id="b" data-name="Layer 2" xmlns="http://www.w3.org/2000/svg" viewBox="0 0 50.36 46.91">
  <g id="c" data-name="Layer 1">
    <g>
      <path d="M27.41,40.28c-1.2,1.6-2.04,3.33-3.97,4.27,1.41,.97,3.74-.4,4.08,2.08-.49,.28-1.05,.12-1.58,.12-5.5,.02-10.99,.03-16.49,.02-2.2,0-4.34-.21-6.32-1.33-1.82-1.02-2.9-2.47-3.08-4.56-.37-4.13,.93-7.57,4-10.46,1-.94,2.02-1.74,3.18-2.41,.28-.16,.69-.57,.99,.03,.22,.44-.21,.5-.39,.75-2,2.7-4.01,5.41-4.53,8.88-.2,1.32-.07,2.59,.48,3.81,.5,1.11,1.26,1.96,2.54,1.9,1.27-.06,1.74-1.1,2.04-2.18,.89-3.27,1.98-6.46,3.47-9.52,1.08-2.24,2.41-4.3,4.09-6.09,2.54-2.7,5.25-5.21,8.79-6.62,.91-.36,1.43-1.33,1.8-2.13,.91-1.93,1.89-3.83,2.63-5.85,1.51-4.15,3.91-7.67,7.85-9.94,.24-.14,.46-.35,.72-.42,.68-.19,1.34-.99,2-.46,.19,.15-.24,1.27-.57,1.84-.8,1.36-.67,2.27,.95,2.8,.91,.3,1.55,.94,1.74,1.92,.33,1.72,1.26,2.94,2.94,3.54,.05,.02,.1,.05,.14,.09,.68,.65,2.22,.88,1.71,2.13-.5,1.22-1.55,2.3-3.15,2.15-5.18-.48-5.22-.62-6.12,4.98-.18,1.11-.23,2.26-.15,3.38,.22,2.95-.35,5.7-1.67,8.35-2,4.01-1.96,8.28-1.43,12.6,.1,.84,.56,1.16,1.26,1.37,.53,.16,.67,.65,.6,1.08-.09,.56-.63,.26-.98,.36-2,.6-3.56-1.08-5.47-1.07-.45,0-.65-.62-.78-1.04-.46-1.39-.85-2.8-1.33-4.39Z"/>
      <path d="M31.8,44.7c-.91-1.25-2.64-1.33-3.27-2.74,0,.94,.02,1.89,0,2.83-.01,.55,.08,1.25-.62,1.43-.82,.21-1.76,.35-2.49-.04-.62-.34-.19-1.04,.32-1.1,1.52-.16,1.1-1.25,1-2.03-.34-2.59-1.19-5.04-2.05-7.5-1.74-5.03-2.15-10.03,.49-14.93,1.05-1.96,2.93-3.3,3.92-5.3,.17-.34,.61-.48,.87-.21,1.6,1.7,3.84,2.91,4.33,5.5,.22,1.18-.48,1.6-1.4,1.86-.21,.06-.45,0-.68,0-.79-.01-1.79-1-2.31,.3-.65,1.61-.19,3.42,1.01,4.3,1.73,1.28,3.52,2.44,5.04,3.99,2.43,2.47,3.79,5.37,4.07,8.8,.06,.73,0,1.47,0,2.21,0,2.29,.77,2.76,3.07,2.35,3.23-.58,5.49-3.8,5.68-6.37,.23-3.21-1.09-5.8-3.8-7.63-.5-.34-1.7-.48-1.26-1.18,.44-.7,1.5-.09,2.1,.34,2.79,2,4.4,4.74,4.29,8.21-.12,3.74-2.08,6.34-5.52,7.83-1.05,.46-2.11,.73-3.27,.71-3.23-.04-6.46,0-9.68-.02-.54,0-1.39,.32-1.41-.71-.02-1.05,.94-.5,1.58-.9Z" style="stroke: #fff; stroke-miterlimit: 10; stroke-width: .5px;"/>
      <g>
        <path d="M12.75,10.24c.8-.08,1.49,.25,2.04,.83,.64,.68,1.23,1.41,1.86,2.1,.67,.75,1.37,1.49,2.04,2.24,.52,.59,.92,1.24,1.06,2.04,.26,1.37-.83,2.77-2.07,2.96-.47,.07-.98-.02-1.47-.09-1.69-.22-3.37-.38-5.07-.22-.85,.08-1.72,.14-2.56,.31-1.83,.37-3.57-1.63-2.8-3.51,.29-.71,.72-1.32,1.25-1.84,1.1-1.1,2.07-2.31,3.09-3.48,.36-.42,.75-.79,1.24-1.06,.43-.23,.89-.3,1.4-.27Z"/>
        <path d="M12.25,5.8c0,1.23-1,2.23-2.22,2.22-1.23,0-2.21-1-2.21-2.23,0-1.22,.99-2.2,2.21-2.21,1.23,0,2.22,.99,2.22,2.22Z"/>
        <path d="M17.57,5.79c0,1.23-.98,2.23-2.21,2.23-1.21,0-2.21-.98-2.22-2.2-.01-1.23,.97-2.23,2.2-2.24,1.23,0,2.22,.98,2.23,2.21Z"/>
        <path d="M3.83,9.35c0-1.23,.99-2.23,2.21-2.22,1.23,0,2.22,1,2.21,2.23,0,1.22-.99,2.21-2.2,2.21-1.23,0-2.22-.99-2.22-2.21Z"/>
        <path d="M21.56,9.34c0,1.23-.99,2.22-2.21,2.22-1.23,0-2.22-.99-2.21-2.22,0-1.22,.98-2.2,2.2-2.22,1.22-.01,2.22,.99,2.23,2.21Z"/>
      </g>
    </g>
  </g>
</svg>