<?xml version="1.0" encoding="UTF-8"?>
<svg id="b" data-name="Layer 2" xmlns="http://www.w3.org/2000/svg" viewBox="0 0 37 46.93">
  <g id="c" data-name="Layer 1">
    <g>
      <g>
        <path d="M26.41,4.12c-.04-.06-.09-.13-.13-.19-.15-.18-.3-.37-.45-.55h0c-.95-1.14-2.08-2.07-3.37-2.81-.36-.26-.68-.61-1.24-.56,.38,.35,.71,.65,1.05,.96,0,0,0,0,0,0,.89,1.06,1.72,2.16,2.25,3.46,.49,1.41,.52,2.83,.1,4.27-.39,1.01-.93,1.93-1.51,2.84,0,0,0,0,0,0-.78,.89-1.57,1.77-2.35,2.66,0,0,0,0,0,0-2.43,2.29-5.1,4.29-7.45,6.67-.25,.27-.5,.52-.74,.8-.92,1.05-1.81,2.13-2.37,3.44-.76,1.25-1.11,2.64-1.28,4.08,0,0,0,0,0,0,0,0,0,0,0,0-.07,.93-.07,1.86,0,2.8h0c.11,.62,.11,1.26,.39,1.84,0,0,0,0,0,0,.63,2.51,2.11,4.44,4.07,6.05,.72,.68,1.53,1.23,2.47,1.64-.65-.87-1.29-1.74-1.94-2.61h0c-.78-1.35-1.5-2.73-1.95-4.24-.41-1.44-.47-2.9-.39-4.38,0,0,0,0,0,0,.26-1.03,.57-2.03,1.01-3,.93-1.65,2.2-3.01,3.52-4.33h0c1.76-1.44,3.55-2.85,5.28-4.32,1-.85,2.02-1.7,2.79-2.79,.78-.85,1.6-1.68,2.11-2.74,.73-1.05,1.23-2.2,1.43-3.48,.43-2.04-.08-3.86-1.3-5.5ZM11.34,31.98s.04-.01,.06-.03c0,.03,0,.06,0,.1-.02-.02-.04-.05-.06-.07Zm3.91-8.58s0-.01,0-.02c.01,0,.03,.02,.04,.02-.01,0-.02,0-.04,0ZM25.05,7.97s0,0,0,0c0,0,0,0,0,0,0,0,0,0,0,0Z"/>
        <g>
          <path d="M11.27,7.54c.41,1.79,1.73,2.82,3.47,2.71,1.59-.11,2.89-1.36,3.02-2.9,.14-1.72-.82-3.16-2.41-3.59-1.63-.44-3.2,.37-3.92,2.02-.23,.57-.25,1.16-.16,1.75h0Z"/>
          <path d="M23.34,5.12c-.25-1.59-1.05-2.88-2.12-4.06,.31,1.55,.43,3.1,.3,4.66,0,0,0,0,0,0-.31,1.46-.91,2.78-1.93,3.88-.55,.45-1.1,.89-1.71,1.27-1.31,.81-2.76,1.22-4.2,1.69-2.46,.48-4.76,1.36-6.89,2.68-2.73,1.6-4.37,3.95-4.8,7.13h0c-.1,.7-.24,1.4-.06,2.13,.11-.31,.23-.62,.34-.93,1-1.9,2.38-3.43,4.25-4.49h0s0,0,0,0c.44-.15,.86-.33,1.31-.43,1.02-.22,1.51,.06,1.95,1.04h0c.32,1.33-.16,2.56-.41,3.86,.38-.49,.76-.98,1.14-1.47h0c2.25-2.4,4.8-4.48,7.23-6.69,1.52-1.38,3.03-2.78,4.11-4.55,0,0,0,0,0,0,0,0,0,0,0,0,1.28-1.71,1.92-3.58,1.48-5.73Z"/>
        </g>
        <path d="M34.94,19.84h0c-1.21-2.57-3.02-4.64-5.24-6.37-.3-.24-.45-.16-.61,.15-.39,.77-.84,1.5-1.37,2.19-1.64,2.14-3.64,3.92-5.63,5.71-2.25,2.02-4.55,3.99-6.33,6.46-2.08,2.9-2.74,5.99-1.17,9.35,.45,.99,1.06,1.88,1.66,2.78,.55,.82,1.15,1.26,2.18,.98,.54-.15,1.12-.12,1.67-.21,4.16-.72,7.47-2.71,9.57-6.51,1.68-3.05,2.18-6.38,2.34-9.8,0,0,0,0,0,0,.21-.67-.1-1.41,.27-2.05h0c0,.12-.01,.25,0,.37,.56,3.1,.5,6.19-.27,9.25,0,0,0,0,0,0-.05,.14-.11,.28-.15,.42-2.06,7.02-8.94,10.89-14.75,10.88-1.08,0-2.15-.12-3.22-.22h0c-.23-.15-.48-.15-.73-.14,0,0,0,0,0,0l-.89-.26s0,0,0,0c0,0,0,0,0,0-2.72-.98-5.11-2.45-7.08-4.6-.24-.3-.49-.59-.72-.9-1.16-1.54-1.93-3.28-2.64-5.06-.34-1.23-.7-2.46-.89-3.72-.2-1.25-.35-2.52-.52-3.77-.6,2.78-.57,5.55,.17,8.29,0,0,0,0,0,0,.5,1.9,1.25,3.69,2.35,5.32,0,0,0,0,0,0,1.8,2.81,4.15,5,7.14,6.48,0,0,0,0,0,0,.31,.23,.63,.43,1.01,.49h0c.3,.12,.59,.24,.89,.36,0,0,0,0,0,0,2.88,1.16,5.88,1.48,8.93,1.06,4.99-.7,9.1-3.05,12.21-7.06,2.18-2.82,3.48-6,3.74-9.59,.03-.12,.09-.23,.1-.35,.2-3.48-.34-6.82-2.02-9.91Zm-2.66,2.69s.05,.05,.07,.09c-.02-.03-.04-.05-.07-.09Z"/>
      </g>
      <path d="M26.06,25.17c-.1-.36-.51-1.77-.51-1.77-.08-.07-.16-.13-.25-.2,.09,.06,.17,.13,.25,.2l-.11-.4c-.13-.11-.2-.07-.27,.07-.17,.34-.37,.67-.6,.97-.73,.95-1.61,1.74-2.49,2.54-.99,.9-2.01,1.77-2.8,2.87-.92,1.29-1.21,2.66-.52,4.16,.2,.44,.47,.84,.73,1.24,.24,.37,.51,.56,.96,.43,.24-.07,.49-.05,.74-.09,1.84-.32,3.31-1.2,4.23-2.89,.74-1.36,.97-2.84,1.04-4.36,0-.3-.31-2.41-.4-2.76Z" style="fill: #fff;"/>
    </g>
  </g>
</svg>