<?xml version="1.0" encoding="UTF-8"?>
<svg id="b" data-name="Layer 2" xmlns="http://www.w3.org/2000/svg" viewBox="0 0 35.43 46.77">
  <g id="c" data-name="Layer 1">
    <g>
      <g>
        <path d="M5.93,6.32c.28-.58,.21-1.1-.24-1.6-.18-.2-.32-.48-.35-.74-.08-.7-.1-1.41-.12-2.12C5.18,.84,6.17-.06,7.28,0c.56,.03,1.12,.09,1.67,.19,.16,.03,.38,.2,.43,.34,.14,.46,.25,.93,.3,1.4,.05,.46-.02,.93,0,1.39,.03,.48-.03,.9-.46,1.27-.37,.32-.18,1.33,.02,1.66,.74,1.22,2.11,1.16,3.28,1.45,.74,.18,1.08,.52,1.24,1.17,.49,1.96,.99,3.92,1.55,5.86,.22,.77,.22,1.46-.05,2.22-.4,1.11-.68,2.26-1.02,3.39-.06,.21-.16,.41-.23,.59-.42-.29-.8-.56-1.2-.84-.53,.9,.56,1.02,.71,1.6-.69,.07-.91,.56-1.15,1.03-.68,1.36-.82,2.83-1.04,4.29-.69,4.59-.82,9.21-1.09,13.83-.02,.26-.05,.52-.05,.78,0,.38-.17,.62-.61,.6-.41-.02-.5,.19-.53,.51-.08,.75,0,1.45,.57,2.04,.17,.18,.35,.4,.38,.62,.05,.42,.24,.92-.26,1.24-.36,.23-1.27,0-1.67-.3-.9-.7-1.11-1.54-.85-2.58,.4-1.6,.23-3.24,.27-4.87,.06-2.54,.17-5.07,.17-7.61,0-2.42-.13-4.85-.2-7.27,0-.07-.04-.13-.12-.37-.17,.27-.33,.41-.36,.56-.41,2.11-.78,4.22-1.19,6.32-.45,2.27,.28,4.52,.13,6.78-.02,.33,.01,.67,0,1.01-.02,.55,.04,1,.56,1.43,.78,.65,.67,1.48-.06,2.16-.19,.17-.3,.45-.35,.69-.07,.33-.02,.67-.05,1-.1,.86-1.02,1.65-1.83,1.51-.23-.04-.57-.3-.58-.48-.04-.51-.01-1.04,.12-1.54,.18-.67,.48-1.3,.73-1.95,.13-.34,.13-.62-.28-.86-.22-.13-.4-.43-.44-.68-.42-2.54-.77-5.09-1.24-7.62-.14-.77,.03-1.49,.04-2.23,.02-2.01,.22-4.04,0-6.03-.24-2.13,.47-4.08,.87-6.09,.27-1.34,.37-2.66-.12-3.97-.02-.06-.07-.12-.2-.35-.92,2.93-.69,5.8-.94,8.61-.34,0-.66-.04-.96,.01-.31,.05-.6,.18-1.01,.32-.06-.31-.17-.59-.17-.86,.03-1.64,.01-3.28,.15-4.92,.18-2.14,.47-4.28,.72-6.42,.02-.15,.07-.29,.11-.44,.23-.98,.62-1.81,1.91-1.86,.27-.01,.54-.15,.81-.19,.91-.16,1.73-.44,2.24-1.23-.38,.88-.37,1.76-.07,2.66,.28,.85,.45,1.72,.66,2.58,.2-.53,.24-1.05,.37-1.56,.16-.6,.23-1.17-.39-1.64,.32-.22,.59-.41,.87-.6-.51-.5-.98-.97-1.46-1.44Zm6.01,6.24c-.05,0-.1,.02-.16,.02-.59,2.26-1.03,4.51,.59,6.71,.17-.51,.33-.97,.47-1.44,.23-.8,.79-1.51,.23-2.45-.52-.87-.76-1.89-1.13-2.84Zm-3.68-4.16c-.06,0-.12,.02-.18,.03-.1,.32-.26,.63-.3,.95-.04,.29,.06,.59,.08,.88,.04,.5,.08,1,.12,1.49,.06,0,.13,.01,.19,.02,.39-1.5,.8-2.99,1.15-4.49,.06-.26-.08-.56-.13-.93-.56,.59-.99,1.05-1.43,1.51,.15,.17,.32,.35,.49,.53Z"/>
        <path d="M1.58,22.44c.48-.1,.65,.15,.65,.62,0,.46,.1,.93,.1,1.39,0,.25-.08,.71-.18,.72-.38,.05-.98,.1-1.13-.1-.37-.49-.88-.98-.73-1.7,.15-.72,.43-.94,1.28-.94Z"/>
      </g>
      <g>
        <path d="M29.93,21.01c-1.02,.04-2,.12-2.97-.2-.75-.25-1.17-.77-1.29-1.54-.03-.2-.05-.41-.05-.61-.02-1.7,0-3.4-.07-5.09-.05-1.43,.14-2.8,.53-4.17,.42-1.45,.77-2.92,1.15-4.38,.03-.1,.04-.19,.08-.34-.55,.3-1.04,.58-1.37,1.09-.25,.39-.46,.38-.68-.02-.27-.49-.71-.75-1.25-1.04,.36,1.38,.7,2.7,1.05,4.02,.02,0,.04,0,.06,0,.12-.84,.24-1.68,.36-2.53h.29s.03,.05,.04,.08c.08,.74,.17,1.47,.25,2.21,.01,.14-.02,.29-.05,.42-.2,.85-.4,1.7-.6,2.55-.04,.2-.05,.41-.05,.61,.02,2.29,.04,4.59,.09,6.88,.01,.43,.03,.83-.26,1.19-.32,.4-.73,.63-1.21,.74-.84,.2-1.69,.17-2.58,.09,.05-3.19,.19-6.37-.08-9.55-.89,3.1-1.78,6.19-2.68,9.32-.91-.21-1.81-.41-2.74-.63,.12-.42,.24-.83,.36-1.22,1.23-4.14,2.47-8.27,3.7-12.41,.13-.43,.35-.71,.81-.83,.51-.12,1-.32,1.51-.45,.59-.16,1.17-.35,1.62-.85,1.15,1.16,2.32,1.21,3.45,.06,.06,.02,.08,.02,.09,.03,.74,.71,1.73,.81,2.64,1.11,1.11,.37,1.07,.2,1.44,1.46,1.28,4.38,2.57,8.76,3.88,13.19-.9,.2-1.78,.39-2.71,.6-.89-3.11-1.78-6.21-2.67-9.31-.03,0-.05,0-.08,0-.2,3.16-.06,6.32,0,9.54Zm-3.23-8.69s0-.09,0-.14c-.12-.08-.24-.23-.35-.23-.1,0-.3,.18-.29,.26,.01,.12,.16,.3,.27,.32,.11,.02,.25-.13,.37-.2Zm0,1.91s0-.09,0-.14c-.12-.08-.25-.23-.36-.21-.11,.02-.29,.19-.28,.29,0,.11,.18,.28,.29,.29,.11,.01,.23-.15,.35-.23Zm0,1.95s0-.09,0-.14c-.12-.09-.24-.25-.35-.23-.11,.01-.27,.18-.3,.3-.01,.08,.16,.28,.27,.28,.12,.01,.25-.13,.37-.2Z"/>
        <path d="M26.7,12.32c-.13,.07-.27,.22-.37,.2-.11-.02-.26-.2-.27-.32,0-.08,.19-.26,.29-.26,.12,0,.24,.15,.35,.23,0,.05,0,.09,0,.14Z" style="fill: #fff;"/>
        <path d="M26.71,14.23c-.12,.08-.24,.24-.35,.23-.11-.01-.29-.18-.29-.29,0-.1,.17-.28,.28-.29,.11-.01,.24,.14,.36,.21,0,.05,0,.09,0,.14Z" style="fill: #fff;"/>
        <path d="M26.7,16.19c-.13,.07-.26,.21-.37,.2-.1,0-.28-.2-.27-.28,.02-.12,.18-.28,.3-.3,.11-.01,.23,.15,.35,.23,0,.05,0,.09,0,.14Z" style="fill: #fff;"/>
      </g>
      <g>
        <path d="M24.85,35.28h-3.39V18.86h8.58v16.41h-3.38c-.02-.23-.04-.41-.04-.6-.18-4.4-.35-8.79-.53-13.19,0-.16-.05-.32-.11-.46-.03-.08-.15-.14-.23-.21-.07,.07-.18,.12-.21,.2-.06,.17-.12,.36-.12,.54-.12,2.89-.23,5.78-.35,8.67-.06,1.6-.13,3.21-.19,4.81,0,.07-.01,.13-.03,.25Z"/>
        <path d="M27.97,17.21v1.16h-2.88v-1.16h2.88Zm-1.86,.62c-.03-.18-.15-.29-.39-.29-.23,0-.36,.12-.36,.29,0,.18,.14,.3,.37,.31,.23,0,.36-.11,.38-.3Z"/>
        <path d="M24.87,17.22v1.16h-1.4v-1.16h1.4Z"/>
        <path d="M28.7,18.37v-1.16h1.34v1.16h-1.34Z"/>
        <path d="M21.46,17.21h1.26v1.17h-1.26v-1.17Z"/>
        <path d="M26.11,17.83c-.02,.19-.15,.3-.38,.3-.23,0-.38-.12-.37-.31,0-.17,.13-.28,.36-.29,.24,0,.36,.11,.39,.29Z" style="fill: #fff;"/>
      </g>
      <g>
        <path d="M25.72,34.55c-.05,.04-.1,.08-.16,.13-.46,.37-.98,.65-1.51,.88-.8,.35-1.63,.6-2.48,.74-.8,.13-1.6,.1-2.39-.1-.34-.09-.68-.19-1.02-.31-.5-.16-1-.29-1.52-.36-.24-.03-.48-.05-.72-.07-.03,0-.08,.02-.1,.04-.13,.13-.18,.3-.21,.48,0,.03,0,.05-.01,.09-.1,0-.2,.02-.31,.02-.83,.05-1.65,0-2.46-.14-.15-.03-.31-.06-.46-.08-.04,0-.06-.03-.06-.07-.01-.12-.02-.24-.03-.36,0-.03,0-.06-.01-.09,0-.13,0-.27,0-.4,.01-.13,.03-.27,.04-.4,0-.03,0-.07,.01-.1,.13,.05,.26,.1,.39,.14,.54,.18,1.09,.28,1.65,.35,.65,.08,1.31,.14,1.96,.22,.84,.1,1.67,.29,2.47,.58,.28,.1,.58,.15,.88,.2,1.58,.26,3.08-.05,4.5-.75,.53-.26,1.02-.56,1.51-.91,.02,.04,.04,.08,.07,.12v.15Z" style="stroke: #fff; stroke-miterlimit: 10; stroke-width: .25px;"/>
        <path d="M12.51,31.5c.25,.09,.49,.19,.74,.28,.55,.18,1.11,.28,1.69,.28,.85-.01,1.64-.26,2.35-.72,.23-.15,.45-.31,.68-.48,.1,.07,.2,.14,.31,.23-.1,.11-.2,.21-.3,.32-.05,.05-.1,.11-.15,.16-.08,.09-.08,.21,0,.3,.09,.08,.22,.08,.3-.01,.15-.15,.29-.31,.43-.46,.02-.02,.03-.03,.05-.05,.16,.12,.32,.23,.48,.35-.09,.12-.17,.23-.25,.34-.04,.05-.08,.1-.12,.16-.07,.1-.05,.22,.04,.29,.1,.07,.22,.06,.3-.04,.12-.16,.23-.32,.35-.48,0,0,.01-.01,.02-.03,.08,.06,.16,.11,.23,.17,.08,.05,.16,.11,.24,.16-.06,.1-.11,.21-.17,.31-.04,.07-.08,.15-.12,.22-.06,.12-.03,.24,.08,.3,.11,.06,.22,.02,.29-.09,.08-.15,.16-.29,.24-.44,.01-.02,.02-.04,.04-.06,0,0,.01,0,.02,0,.15,.05,.18,.14,.17,.3-.05,.58-.21,1.12-.55,1.59-.03,.04-.05,.06-.11,.05-.56-.1-1.13-.19-1.7-.23-.54-.03-1.07-.04-1.6,.1-.28,.07-.54,.19-.75,.4-.07,.07-.13,.16-.19,.24-.02,.02-.05,.04-.07,.04-.71-.07-1.41-.13-2.11-.28-.35-.08-.7-.18-1.04-.31-.04-.02-.06-.04-.07-.09-.05-.5-.05-1.01,0-1.51,.04-.42,.11-.83,.21-1.23,0-.02,.01-.04,.02-.06Z" style="stroke: #fff; stroke-miterlimit: 10; stroke-width: .25px;"/>
        <path d="M20.56,32.64c.15,.07,.29,.13,.43,.19,.47,.2,.97,.31,1.48,.35,.51,.03,1.03,.04,1.54,.06,.34,.01,.69,.05,1.01,.18,.15,.06,.28,.13,.39,.24,.14,.14,.21,.3,.23,.5,0,.02-.02,.06-.03,.07-.8,.56-1.64,1.02-2.57,1.33-.85,.29-1.73,.42-2.63,.38-.55-.03-1.09-.11-1.61-.26-.32-.09-.63-.21-.94-.3-.62-.17-1.26-.27-1.91-.34-.1-.01-.21-.02-.33-.04,.03-.05,.05-.09,.08-.12,.16-.21,.37-.33,.61-.42,.4-.15,.82-.18,1.25-.19,.63,0,1.25,.08,1.87,.18,.14,.02,.27,.05,.4,.07,.05,.01,.08,0,.11-.05,.32-.42,.5-.9,.57-1.42,.02-.14,.03-.27,.04-.41Z" style="stroke: #fff; stroke-miterlimit: 10; stroke-width: .25px;"/>
        <path d="M17.8,30.82c-.91,.79-1.94,1.24-3.17,1.15-.66-.05-1.27-.24-1.86-.52,0,0,0,0-.03-.02,1.78,.47,3.47,.32,5.06-.61Z" style="stroke: #fff; stroke-miterlimit: 10; stroke-width: .25px;"/>
        <path d="M18.51,31.02s.08,.05,.11,.09c.03,.05,.02,.1-.02,.15-.09,.09-.18,.19-.26,.28-.08,.08-.16,.17-.24,.25-.06,.06-.14,.07-.19,.02-.05-.05-.06-.13,0-.19,.17-.18,.33-.36,.5-.53,.02-.03,.06-.04,.11-.06Z" style="stroke: #fff; stroke-miterlimit: 10; stroke-width: .25px;"/>
        <path d="M20.3,32.27s-.01,.04-.02,.06c-.11,.21-.23,.42-.34,.63-.04,.07-.11,.1-.18,.06-.07-.03-.09-.11-.05-.19,.11-.21,.23-.42,.34-.63,.04-.07,.1-.09,.16-.07,.05,.02,.09,.07,.09,.14Z" style="stroke: #fff; stroke-miterlimit: 10; stroke-width: .25px;"/>
        <path d="M18.94,32.45c-.13,0-.19-.11-.14-.19,.14-.2,.3-.4,.45-.6,.04-.05,.11-.05,.16-.02,.05,.03,.07,.1,.05,.16,0,.02-.02,.03-.03,.05-.13,.18-.26,.36-.4,.54-.03,.04-.07,.06-.09,.07Z" style="stroke: #fff; stroke-miterlimit: 10; stroke-width: .25px;"/>
      </g>
      <path d="M35.43,43.03v.34c-.16,.27-.37,.51-.6,.74-.4,.4-.82,.77-1.27,1.12-.43,.33-.9,.56-1.43,.68-.52,.12-1.04,.16-1.57,.17-.29,0-.57-.02-.84-.08-.29-.07-.59-.13-.88-.19-.25-.05-.5-.12-.76-.07-.6,.1-1.19,.21-1.78,.32-.46,.08-.92,.17-1.37,.25-.76,.15-1.52,.29-2.29,.35-1.39,.1-2.79,.14-4.18,.04-.49-.04-.97-.1-1.44-.25-.81-.27-1.4-.77-1.66-1.61-.13-.41-.18-.82-.17-1.24,.01-.44,.2-.78,.53-1.06,.35-.31,.76-.47,1.22-.55,.67-.11,1.33-.05,2,.05,.48,.07,.93,.22,1.4,.32,.07,.02,.1,0,.12-.07,.28-1.11,.62-2.19,.98-3.27,.15-.45,.3-.9,.5-1.33,.1-.21,.26-.32,.49-.34,.03,0,.07,0,.1-.01,.25-.01,.51-.03,.74,.08,.11,.05,.2,.06,.31,.05,.12-.01,.23-.03,.35-.05,.64-.11,1.27-.21,1.92-.22,.74-.02,1.49-.01,2.22,.15,.44,.1,.89,.21,1.29,.43,.26,.14,.44,.34,.53,.62,.11,.31,.17,.63,.22,.96,.12,.73,.23,1.46,.33,2.19,.11,.77,.27,1.54,.4,2.3,.01,.07,.04,.09,.1,.07,.02,0,.05,0,.07-.01,.73-.14,1.45-.3,2.16-.49,.58-.15,1.16-.33,1.75-.43,.17-.03,.35-.08,.51,.03Zm-4.78,1.25c-.15,0-.27,.01-.4,.02-.58,.03-1.16,.05-1.74,.06-.66,.02-1.31,.01-1.97,.02-1.85,0-3.7,.03-5.54,0-.44,0-.87-.06-1.28-.22-.06-.02-.08-.01-.1,.05-.02,.09-.02,.19-.02,.28,0,.16,.06,.29,.21,.36,.08,.04,.17,.06,.26,.08,.57,.13,1.16,.17,1.75,.2,.46,.02,.92,.03,1.38,.04,.71,0,1.41,0,2.12-.03,.39-.01,.79-.02,1.18-.04,.55-.03,1.11-.04,1.66-.06,.38-.02,.76-.05,1.13-.12,.35-.07,.68-.2,.99-.38,.12-.07,.25-.14,.37-.26Z" style="fill: #121213;"/>
      <path d="M30.92,42.94c-.12,.11-.25,.19-.37,.26-.31,.17-.64,.3-.99,.38-.37,.08-.75,.11-1.13,.12-.55,.02-1.11,.04-1.66,.06-.39,.02-.79,.03-1.18,.04-.71,.02-1.41,.04-2.12,.03-.46,0-.92-.02-1.38-.04-.59-.03-1.17-.07-1.75-.2-.09-.02-.18-.04-.26-.08-.15-.07-.21-.2-.21-.36,0-.09,0-.19,.02-.28,.02-.07,.04-.08,.1-.05,.41,.15,.84,.21,1.28,.22,1.85,.04,3.7,.01,5.54,0,.66,0,1.31,0,1.97-.02,.58-.01,1.16-.04,1.74-.06,.12,0,.25-.01,.4-.02Z" style="fill: #5a5a5a;"/>
    </g>
  </g>
</svg>