<?xml version="1.0" encoding="UTF-8"?>
<svg id="b" data-name="Layer 2" xmlns="http://www.w3.org/2000/svg" viewBox="0 0 50.56 45.83">
  <g id="c" data-name="Layer 1">
    <g>
      <g>
        <path d="M27.25,.97c-1.3-1.3-3.4-1.3-4.69,0L.49,23.04c-.65,.65-.65,1.7,0,2.35,.65,.65,1.7,.65,2.35,0h0L24.91,3.32l22.07,22.07c.65,.65,1.7,.65,2.35,0s.65-1.7,0-2.35l-7.82-7.81V4.29c0-.92-.74-1.66-1.66-1.66h-3.32c-.92,0-1.66,.74-1.66,1.66v4.29L27.25,.97Z"/>
        <path d="M24.91,6.92l19.92,19.92v13.97c0,2.75-2.23,4.98-4.98,4.98H9.97c-2.75,0-4.98-2.23-4.98-4.98v-13.97L24.91,6.92Z"/>
      </g>
      <g>
        <path d="M8.53,6.35c0,1.12-.26,2.14-.68,2.9-.36-.27-.82-.39-1.27-.32-.24-.84-.78-1.74-1.57-2.53-.13-.13-.27-.26-.42-.39,.69-.34,1.46-.51,2.23-.51,.59,0,1.16,.1,1.68,.28,.02,.19,.02,.38,.02,.57Zm0,4.26c0,.06,0,.12-.01,.18,.87-.02,1.88-.3,2.84-.86,.17-.1,.33-.2,.49-.31-.26-1.33-1.04-2.5-2.16-3.26-.03,.18-.08,.37-.12,.55-.29,1.08-.8,2-1.41,2.62,.24,.29,.38,.66,.38,1.07Zm-.12,.62c-.17,.42-.49,.76-.91,.95,.45,.74,1.2,1.47,2.16,2.03,.17,.1,.34,.19,.52,.27,1.03-.89,1.66-2.15,1.75-3.5-.18,.06-.36,.12-.55,.17-1.08,.29-2.13,.3-2.97,.09h0Zm-1.59,1.08c-.38,0-.74-.13-1.02-.34-.42,.76-.68,1.77-.68,2.89,0,.2,0,.39,.02,.58,.54,.19,1.11,.28,1.68,.28,.8,0,1.56-.18,2.24-.51-.15-.12-.29-.25-.42-.39-.79-.79-1.33-1.69-1.57-2.52-.08,.01-.16,.02-.25,.02Zm-1.71-1.71c0-.07,0-.14,.01-.2-.87,.01-1.88,.3-2.85,.86-.17,.1-.33,.2-.48,.31,.26,1.33,1.03,2.51,2.15,3.27,.03-.19,.08-.37,.13-.56,.29-1.08,.8-2,1.41-2.62-.24-.3-.37-.67-.37-1.06Zm-2.85-.54c1.08-.29,2.13-.3,2.97-.09,.17-.42,.5-.76,.91-.94-.45-.75-1.2-1.48-2.17-2.04-.17-.1-.33-.18-.51-.27-1.03,.89-1.66,2.15-1.76,3.5,.18-.06,.36-.12,.54-.17Zm4.56,1.39c.47,0,.85-.38,.85-.85s-.38-.85-.85-.85-.85,.38-.85,.85,.38,.85,.85,.85Z"/>
        <path d="M6.82,16.58c-3.3,0-5.97-2.67-5.97-5.97S3.52,4.65,6.82,4.65s5.97,2.67,5.97,5.97-2.67,5.97-5.97,5.97Zm0,.85c3.77,0,6.82-3.05,6.82-6.82S10.59,3.79,6.82,3.79,0,6.85,0,10.61s3.05,6.82,6.82,6.82Z"/>
      </g>
      <g>
        <rect x="17.11" y="21.44" width="20.84" height="24.1" style="fill: #fff;"/>
        <rect x="32.56" y="12.23" width="16.87" height="33.31" style="fill: #fff;"/>
        <rect x="18.38" y="14.78" width="4.25" height="6.66" style="fill: #fff;"/>
        <path d="M47.1,36.76c-2.93,0-5.81,0-8.69,0-.09,0-.18,.03-.29,.04v1.08c1.32,0,2.63,0,3.95,0,1.39,0,1.69,.3,1.69,1.71,0,.9,.01,1.8,0,2.69-.01,.83-.44,1.26-1.28,1.27-1.44,.01-2.87,0-4.39,0,0,.52-.01,.98,0,1.45,.02,.56-.22,.82-.79,.82-6.66,0-13.32,0-19.98,0-.53,0-.78-.23-.77-.77,0-3.26,0-6.52,0-9.78,0-.43,.12-.84,.59-.75,.22,.04,.51,.48,.52,.74,.05,1.72,.02,3.45,.02,5.17,0,.25,0,.51,0,.84,1.23,0,2.4,0,3.58,0,.84,0,.95,.12,.96,.93,0,.8,0,1.6,0,2.43h14.68V22.06h-11.25v1.09c.28,0,.55,0,.82,0,.41-.01,.81,.06,.82,.55,.01,.5-.37,.6-.79,.59-.26,0-.52,0-.83,0v1.13c.23,0,.48,0,.73,0,2.76,0,5.53,0,8.29,0,.19,0,.42-.06,.56,.02,.22,.12,.51,.35,.52,.53,0,.19-.28,.43-.49,.55-.16,.09-.42,.03-.63,.03-5.36,0-10.72,0-16.09,0h-.89c0,.27,0,.52,0,.77,0,1.72,0,3.45,0,5.17,0,.41-.04,.82-.54,.84-.55,.02-.6-.4-.6-.84,0-3.59,0-7.18,0-10.77,0-.6,.24-.85,.85-.85,1.58,.02,3.16,0,4.78,0v-5.63h-3.35c0,.58,0,1.16,0,1.74,0,.71,.04,1.42-.03,2.12-.02,.22-.34,.42-.52,.63-.19-.17-.55-.34-.55-.51-.04-1.53-.05-3.07-.02-4.6,0-.5,.42-.55,.83-.55,1.8,0,3.59,0,5.39,0,.23,0,.47,0,.89,0-.46-.47-.81-.83-1.17-1.18-.29-.29-.45-.65-.07-.89,.19-.12,.65-.06,.83,.1,.6,.53,1.12,1.14,1.83,1.89,.58-.65,1.09-1.23,1.61-1.8,.29-.31,.62-.6,1.01-.18,.36,.38,.09,.69-.2,.97-.33,.32-.66,.64-1.15,1.11,.69,0,1.15,0,1.61,0,.93,0,1.03,.09,1.03,1,0,1.68,0,3.35,0,5.03,0,.23,0,.46,0,.77,1.52,0,2.98,0,4.43,0,.87,0,1.75,.02,2.62,0,.63-.02,.91,.23,.89,.87-.03,1.01,0,2.02,0,3.06h11.29V12.98h-16.39c0,.23,0,.48,0,.73,0,1.72,0,3.45,0,5.17,0,.44-.06,.86-.61,.84-.5-.02-.54-.43-.54-.84,0-2.08,.01-4.16,0-6.24,0-.6,.24-.85,.84-.85,5.67,0,11.34,.01,17.01,0,.65,0,.87,.26,.87,.89,0,10.75,0,21.5,0,32.24,0,.43-.03,.87-.58,.87-.55,0-.56-.46-.56-.88,0-6,0-12,0-18v-.89h-11.3v9.59c.24,0,.49,0,.74,0,2.81,0,5.62,0,8.43,0,.89,0,.99,.1,1,.97,0,2.76,0,5.53,0,8.29,0,.83-.12,.95-.94,.95-2.41,0-4.82,0-7.23,0-.43,0-.87-.02-.88-.57,0-.55,.44-.58,.87-.57,2.31,0,4.63,0,6.99,0v-7.93Zm-22.68-11.37v-3.34h-6.7v3.34h6.7Zm-3.36,17.08h-3.33v2.17h3.33v-2.17Zm21.52-.07v-3.13c-1.05,1.04-2.19,2.16-3.18,3.13h3.18Zm-4.46-1.03c.76-.77,1.54-1.55,2.28-2.29h-2.28v2.29Zm-14.75-25.08h1.07v-1.03h-1.07v1.03Zm2.28-1.04v1.05h1.04v-1.05h-1.04Zm3.33,.01h-1.05v1.05h1.05v-1.05Zm-5.62,3.31h1.07v-1.03h-1.07v1.03Zm3.35,.01v-1.06h-1.05v1.06h1.05Zm1.18-.01h1.07v-1.03h-1.07v1.03Zm-3.47,2.28v-1.07h-1.04v1.07h1.04Zm1.23-1.07v1.05h1.05v-1.05h-1.05Zm3.31,1.07v-1.05h-1.04v1.05h1.04Z"/>
        <path d="M27.27,43c-3.07,0-5.81-1.91-6.89-4.77-1.08-2.87-.27-6.09,2.03-8.14,2.29-2.03,5.61-2.43,8.32-1,.23,.12,.45,.26,.67,.4,.32,.21,.57,.47,.31,.87-.25,.39-.56,.27-.92,.1-.79-.36-1.57-.78-2.41-.95-2.85-.58-5.72,1.01-6.85,3.69-1.13,2.69-.24,5.81,2.13,7.51,2.37,1.69,5.6,1.52,7.79-.41,2.17-1.93,2.73-5.14,1.32-7.68-.1-.19-.3-.35-.32-.54-.03-.28,.06-.58,.09-.86,.28,.08,.68,.07,.82,.26,.79,1.07,1.2,2.29,1.3,3.61,.3,4.32-3.08,7.93-7.39,7.92Z"/>
        <path d="M27.29,30.5c2.12,0,3.97,1.23,4.76,3.18,.79,1.93,.32,4.16-1.19,5.61-1.49,1.43-3.7,1.83-5.58,1-.21-.09-.48-.18-.6-.35-.13-.18-.2-.49-.13-.68,.05-.14,.37-.25,.58-.26,.19,0,.39,.15,.58,.23,1.78,.77,3.81,.19,4.88-1.41,1.06-1.58,.87-3.66-.47-5-1.34-1.35-3.41-1.56-5-.51-1.6,1.06-2.21,3.09-1.45,4.87,.18,.42,.59,.93-.06,1.21-.66,.29-.82-.37-1-.81-1.44-3.35,1.03-7.08,4.67-7.09Z"/>
        <path d="M48.28,30.53c0,.4,.02,.8,0,1.2-.06,.94-.82,1.63-1.73,1.61-.88-.02-1.62-.71-1.66-1.61-.03-.82-.04-1.65,0-2.48,.05-.9,.81-1.58,1.69-1.58,.88,0,1.62,.67,1.69,1.58,.03,.42,0,.85,0,1.27Zm-1.14-.01c0-.38,.07-.77-.03-1.12-.06-.23-.37-.38-.57-.57-.18,.19-.49,.36-.5,.56-.06,.75-.07,1.5,0,2.25,.02,.21,.37,.38,.57,.57,.18-.19,.45-.35,.51-.57,.08-.35,.02-.74,.02-1.12Z"/>
        <path d="M48.28,18.6c0,.42,.03,.85,0,1.27-.06,.84-.73,1.5-1.55,1.57-.82,.07-1.6-.5-1.79-1.3-.1-.4-.09-.8,.38-.93,.43-.12,.59,.17,.74,.56,.08,.22,.41,.35,.62,.52,.16-.23,.44-.45,.46-.69,.06-.68,.06-1.37,0-2.05-.02-.23-.33-.43-.5-.64-.2,.17-.5,.3-.57,.5-.14,.42-.32,.73-.78,.56-.45-.16-.43-.57-.32-.96,.22-.78,.96-1.31,1.76-1.25,.82,.06,1.5,.71,1.57,1.55,.03,.42,0,.85,0,1.27Z"/>
        <path d="M20.24,28.81c-.26,0-.55,.08-.77-.02-.25-.11-.44-.37-.66-.56,.2-.18,.39-.49,.62-.53,.53-.08,1.08-.08,1.61,0,.22,.03,.39,.36,.59,.55-.2,.18-.38,.43-.62,.53-.22,.09-.51,.02-.77,.02Z"/>
        <path d="M34.39,28.8c-.31,0-.63,.06-.91-.02-.2-.06-.48-.34-.46-.5,.02-.21,.28-.54,.46-.56,.6-.07,1.22-.07,1.82,0,.18,.02,.47,.34,.46,.5-.03,.21-.26,.49-.47,.57-.27,.1-.6,.02-.91,.02Z"/>
        <path d="M20.54,16.1c.25,.4,.5,.64,.49,.85-.01,.18-.39,.51-.52,.48-.22-.06-.48-.35-.52-.57-.03-.17,.27-.39,.55-.76Z"/>
        <path d="M20.45,19.98c-.23-.41-.49-.65-.47-.87,.02-.18,.41-.5,.54-.46,.22,.07,.48,.36,.51,.59,.02,.17-.28,.38-.57,.74Z"/>
        <path d="M30.21,22.9c.23,.41,.48,.66,.46,.87-.02,.18-.36,.33-.55,.5-.17-.21-.46-.4-.49-.63-.02-.17,.29-.38,.58-.74Z"/>
        <path d="M33.22,23.72c-.39,.26-.62,.52-.84,.52-.18,0-.53-.37-.49-.51,.06-.22,.33-.5,.55-.54,.17-.03,.4,.26,.78,.53Z"/>
        <path d="M34.68,24.52c-.26-.39-.53-.62-.52-.83,0-.18,.37-.53,.5-.5,.22,.06,.5,.33,.54,.55,.03,.17-.26,.4-.52,.78Z"/>
        <path d="M45.45,39.26c-.26-.39-.53-.62-.52-.83,0-.18,.37-.53,.5-.5,.22,.06,.5,.33,.54,.55,.03,.17-.26,.4-.52,.78Z"/>
        <path d="M45.46,39.91c.26,.39,.52,.62,.52,.84,0,.18-.38,.53-.5,.49-.22-.06-.5-.33-.54-.56-.03-.17,.26-.4,.53-.78Z"/>
        <path d="M24.42,25.38h-6.7v-3.34h6.7v3.34Zm-3.32-1.1c.52,0,1.04,.06,1.55-.02,.25-.04,.46-.34,.69-.53-.22-.19-.43-.54-.66-.55-1.06-.06-2.12-.06-3.17,0-.24,.01-.46,.34-.68,.53,.24,.19,.46,.51,.73,.55,.5,.09,1.03,.03,1.55,.03Z" style="fill: #fff;"/>
        <path d="M21.06,42.47v2.17h-3.33v-2.17h3.33Z" style="fill: #fff;"/>
        <path d="M42.57,42.4h-3.18c.99-.98,2.13-2.1,3.18-3.13v3.13Z" style="fill: #fff;"/>
        <path d="M38.12,41.37v-2.29h2.28c-.74,.74-1.52,1.52-2.28,2.29Z" style="fill: #fff;"/>
        <path d="M23.37,16.29v-1.03h1.07v1.03h-1.07Z" style="fill: #fff;"/>
        <path d="M25.65,15.24h1.04v1.05h-1.04v-1.05Z" style="fill: #fff;"/>
        <path d="M28.98,15.26v1.05h-1.05v-1.05h1.05Z" style="fill: #fff;"/>
        <path d="M23.36,18.57v-1.03h1.07v1.03h-1.07Z" style="fill: #fff;"/>
        <path d="M26.71,18.58h-1.05v-1.06h1.05v1.06Z" style="fill: #fff;"/>
        <path d="M27.89,18.57v-1.03h1.07v1.03h-1.07Z" style="fill: #fff;"/>
        <path d="M24.42,20.85h-1.04v-1.07h1.04v1.07Z" style="fill: #fff;"/>
        <path d="M25.66,19.78h1.05v1.05h-1.05v-1.05Z" style="fill: #fff;"/>
        <path d="M28.97,20.84h-1.04v-1.05h1.04v1.05Z" style="fill: #fff;"/>
        <path d="M47.15,30.52c0,.38,.06,.77-.02,1.12-.05,.22-.33,.38-.51,.57-.2-.19-.55-.36-.57-.57-.07-.74-.06-1.5,0-2.25,.02-.2,.33-.38,.5-.56,.2,.19,.5,.35,.57,.57,.1,.35,.03,.74,.03,1.12Z" style="fill: #fff;"/>
        <path d="M21.1,24.28c-.52,0-1.05,.06-1.55-.03-.27-.05-.49-.36-.73-.55,.23-.18,.45-.52,.68-.53,1.06-.06,2.12-.06,3.17,0,.23,.01,.44,.36,.66,.55-.23,.18-.44,.49-.69,.53-.5,.08-1.03,.02-1.55,.03Z"/>
      </g>
    </g>
  </g>
</svg>