<?xml version="1.0" encoding="UTF-8"?>
<svg id="b" data-name="Layer 2" xmlns="http://www.w3.org/2000/svg" viewBox="0 0 46.57 47">
  <g id="c" data-name="Layer 1">
    <g>
      <g>
        <path d="M23.07,29.09c.12,.34,.23,.65,.34,.96,.72,1.99,1.63,3.89,2.81,5.65,.77,1.14,1.7,2.14,2.73,3.05,1.91,1.69,3.9,3.27,6.05,4.65,.16,.1,.32,.2,.48,.29,.56,.34,.65,.93,.24,1.43-.27,.32-.64,.48-1,.65-1.83,.9-3.79,1.25-5.81,1.23-2.15-.02-4.25-.39-6.29-1.06-1.78-.59-3.44-1.45-4.93-2.6-1.6-1.24-2.88-2.75-3.82-4.54-.32-.61-.57-1.25-.86-1.87-.32-.66-.67-1.3-1.31-1.72-.11-.07-.25-.13-.39-.14-.42-.05-.66,.15-.72,.6-.06,.47,.04,.92,.15,1.37,.11,.44,.19,.89,.08,1.35-.14,.57-.68,.86-1.24,.67-.46-.16-.83-.44-1.12-.82-.41-.54-.8-1.1-1.14-1.69-.81-1.4-1.59-2.83-2.38-4.25-.22-.4-.44-.8-.68-1.19-.2-.33-.42-.65-.77-.83-.12-.06-.26-.1-.4-.1-.27,0-.4,.12-.47,.38-.13,.51-.05,1,.06,1.5,.05,.21,.09,.43,.1,.65,0,.41-.22,.62-.62,.66-.25,.02-.45-.03-.63-.23-.5-.53-.97-1.09-1.25-1.78-.37-.91-.43-1.83,.02-2.74,.34-.67,.92-1.05,1.62-1.23,.42-.11,.86-.16,1.29-.19,2.04-.13,4.09-.25,6.14-.34,1.41-.07,2.83-.07,4.25-.14,1.04-.05,2.03-.29,2.96-.78,.65-.34,1.2-.81,1.63-1.4,.51-.71,.97-1.46,1.32-2.27,.03-.07,.06-.14,.06-.24-.06,.07-.13,.14-.19,.22-.55,.66-1.16,1.27-1.87,1.75-.52,.35-1.07,.62-1.67,.8-.13,.04-.18,0-.23-.11-.4-.94-.69-1.91-.7-2.94,0-1,.32-1.85,1.07-2.51,.5-.44,1.11-.68,1.77-.75,.38-.04,.77-.04,1.17-.09-.1-.02-.2-.05-.3-.06-.53-.04-1.07-.07-1.6-.11-.44-.03-.8-.19-1.12-.52-1.13-1.18-2.29-2.34-3.45-3.49-.27-.26-.28-.44-.08-.73,.27-.4,.67-.66,1.16-.54,.17,.04,.35,.14,.46,.27,.98,1.16,1.94,2.34,2.91,3.51,.15,.17,.33,.33,.52,.45,.25,.16,.48,.07,.56-.21,.06-.24,.08-.49,.07-.74-.03-.43-.19-.82-.43-1.18-.47-.7-.93-1.41-1.38-2.13-.41-.64-.35-1.39,.15-1.98,.2-.24,.41-.45,.7-.56,.34-.14,.69-.12,1.01,.02,.28,.12,.55,.29,.8,.46,.35,.25,.6,.25,.94-.02,.4-.33,.84-.58,1.38-.52,1.05,.1,1.61,1.04,1.51,1.93-.06,.51-.31,.94-.6,1.35-.31,.45-.57,.92-.7,1.45-.1,.41-.02,.73,.34,1.01,.87,.68,1.63,1.47,2.2,2.44,.71,1.22,.88,2.54,.67,3.93-.25,1.69-.89,3.23-1.73,4.69-.42,.74-.89,1.45-1.29,2.2-.58,1.06-1.03,2.18-1.27,3.37-.31,1.53-.15,3,.56,4.4,0,0,.02,.01,.04,.03,0-.2,0-.4,0-.6-.03-1.69,.06-3.37,.56-5,.26-.83,.64-1.6,1.3-2.21,.08-.07,.16-.13,.27-.22Z"/>
        <path d="M19.64,7.37c.27-.17,.53-.31,.76-.49,.5-.4,.71-1.11,.52-1.73-.14-.48-.51-.65-.97-.41-.63,.33-1.24,.7-1.85,1.06-.12,.07-.18,.19-.14,.33,.03,.13,.09,.26,.15,.39,.07,.14,.15,.28,.25,.4,.35,.45,.25,1.04-.14,1.44-.42,.43-.92,.59-1.51,.5-.8-.12-1.48-.51-2.13-.96-1.3-.9-2.17-2.14-2.7-3.62-.02-.05-.03-.1-.04-.17,.3,.22,.56,.44,.85,.63,1.1,.74,2.3,1.05,3.62,.84,1.03-.17,1.96-.59,2.8-1.18,.68-.47,1.3-1.01,1.96-1.52,.75-.59,1.55-1.1,2.46-1.39,.44-.14,.88-.22,1.35-.15,.87,.12,1.4,.63,1.63,1.46,.23,.81,.11,1.61-.19,2.37-.57,1.45-1.6,2.48-2.95,3.2-.31,.17-.64,.34-.98,.42-.99,.23-1.68-.1-2.14-1.01-.13-.27-.35-.35-.61-.41Z"/>
        <path d="M21.5,1.39c-.22,.02-.41,.03-.6,.06-.53,.1-.98,.36-1.39,.68-.61,.48-1.3,.65-2.06,.65-.21,0-.41-.01-.62-.04-.05,0-.12-.07-.13-.11-.03-.74,.1-1.42,.67-1.95,.48-.44,1.05-.66,1.7-.69,.57-.02,1.12,.04,1.61,.36,.38,.25,.63,.6,.81,1.02Z"/>
      </g>
      <path d="M35.45,31.07c-.91-.08-1.81-.16-2.72-.25-.68-.07-1.36-.16-2.05-.24v-.5c-1.15-.13-2.32-.24-3.43-.72,.41-1.1,.82-2.17,1.21-3.25,1.32-3.74,2.63-7.48,3.95-11.21,.21-.58,.41-1.17,.7-1.71,.67-1.23,.6-2.5,.3-3.8-.14-.6-.31-1.18-.68-1.7-.49-.69-.56-1.52-.52-2.34,.02-.45-.14-.67-.54-.85-.64-.28-1.25-.62-1.92-.95,.25-.82,.45-1.65,1.04-2.3,.14-.16,.36-.28,.56-.33,.78-.21,1.57-.39,2.37-.55,.15-.03,.36,0,.49,.08,1.88,1.25,3.25,1.24,5.12-.02,.11-.08,.31-.09,.45-.06,.81,.17,1.62,.34,2.41,.56,.26,.07,.56,.27,.69,.5,.37,.66,.66,1.37,.99,2.09-.8,.4-1.49,.77-2.2,1.1-.25,.12-.34,.25-.31,.54,.09,1.05-.19,1.99-.74,2.91-.34,.57-.39,1.33-.54,2.01-.06,.24-.06,.5-.08,.75-.04,.69,.04,1.33,.29,2,1.41,3.79,2.76,7.6,4.13,11.41,.61,1.7,1.22,3.4,1.84,5.13-1.08,.47-2.24,.59-3.41,.71v.5c-.89,.11-1.79,.22-2.69,.32-.6,.07-1.2,.12-1.79,.17h-2.94ZM40.69,.95c-.35-.1-.64-.21-.94-.27-.12-.02-.28,0-.37,.07-1.63,1.3-3.56,1.23-5.2,.01-.09-.07-.23-.13-.33-.11-.32,.07-.63,.19-.98,.3,.3,1.08,.59,2.12,.9,3.15,.02,.07,.19,.15,.28,.14,.34-.01,.67-.08,1-.08,1.44,.02,2.88,.05,4.32,.07,.15,0,.4-.07,.43-.17,.31-1.01,.59-2.04,.89-3.11Zm-6.97,11.1c1.03,1.38,5.17,1.42,6.15,.09-2.06,.42-4.07,.56-6.15-.09Z"/>
      <path d="M46.5,42.04c-.6,.06-1.19,.15-1.79,.19-1.53,.1-3.06,.14-4.58-.1-.76-.12-1.3-.5-1.57-1.21-.23-.62-.43-1.25-.63-1.87-.23-.72-.46-1.44-1.07-1.95-.19-.16-.51-.36-.67-.29-.19,.08-.37,.41-.4,.65-.09,.76-.11,1.52-.14,2.29-.03,.74-.04,1.48-.04,2.22,0,.27-.09,.37-.39,.27,0-.3,0-.62,0-.93,0-1.87-.14-3.71-.57-5.54-.33-1.42,.31-2.48,1.41-3.32,.27-.21,.44-.16,.65,.1,1.12,1.42,1.96,3,2.64,4.67,.23,.55,.45,1.1,.73,1.62,.61,1.11,1.51,1.49,2.76,1.27,.2-.04,.44,.01,.63,.1,.79,.36,1.58,.73,2.36,1.12,.27,.13,.49,.34,.74,.52-.02,.07-.05,.13-.07,.2Z"/>
    </g>
  </g>
</svg>