<?xml version="1.0" encoding="UTF-8"?>
<svg id="b" data-name="Layer 2" xmlns="http://www.w3.org/2000/svg" viewBox="0 0 54.67 47">
  <g id="c" data-name="Layer 1">
    <g>
      <path d="M11.38,4.46c.2,0,.37,.16,.37,.37v1.1h.73v-1.1c0-.2,.16-.37,.37-.37s.37,.16,.37,.37v1.1h.73v-1.1c0-.2,.16-.37,.37-.37s.37,.16,.37,.37v1.1h.73v-1.1c0-.2,.16-.37,.37-.37s.37,.16,.37,.37v1.1c1.01,0,1.83,.82,1.83,1.83h1.1c.2,0,.37,.16,.37,.37s-.16,.37-.37,.37h-1.1v.73h1.1c.2,0,.37,.16,.37,.37s-.16,.37-.37,.37h-1.1v.73h1.1c.2,0,.37,.16,.37,.37s-.16,.37-.37,.37h-1.1v.73h1.1c.2,0,.37,.16,.37,.37s-.16,.37-.37,.37h-1.1c0,1.01-.82,1.83-1.83,1.83v1.1c0,.2-.16,.37-.37,.37s-.37-.16-.37-.37v-1.1h-.73v1.1c0,.2-.16,.37-.37,.37s-.37-.16-.37-.37v-1.1h-.73v1.1c0,.2-.16,.37-.37,.37s-.37-.16-.37-.37v-1.1h-.73v1.1c0,.2-.16,.37-.37,.37s-.37-.16-.37-.37v-1.1c-1.01,0-1.83-.82-1.83-1.83h-1.1c-.2,0-.37-.16-.37-.37s.16-.37,.37-.37h1.1v-.73h-1.1c-.2,0-.37-.16-.37-.37s.16-.37,.37-.37h1.1v-.73h-1.1c-.2,0-.37-.16-.37-.37s.16-.37,.37-.37h1.1v-.73h-1.1c-.2,0-.37-.16-.37-.37s.16-.37,.37-.37h1.1c0-1.01,.82-1.83,1.83-1.83v-1.1c0-.2,.16-.37,.37-.37Zm-.37,2.19c-.61,0-1.1,.49-1.1,1.1v5.12c0,.61,.49,1.1,1.1,1.1h5.12c.61,0,1.1-.49,1.1-1.1V7.74c0-.61-.49-1.1-1.1-1.1h-5.12Zm.37,2.56c0-.61,.49-1.1,1.1-1.1h2.19c.61,0,1.1,.49,1.1,1.1v2.19c0,.61-.49,1.1-1.1,1.1h-2.19c-.61,0-1.1-.49-1.1-1.1v-2.19Zm1.1-.37c-.2,0-.37,.16-.37,.37v2.19c0,.2,.16,.37,.37,.37h2.19c.2,0,.37-.16,.37-.37v-2.19c0-.2-.16-.37-.37-.37h-2.19Z"/>
      <path d="M46.12,3.42c.94,0,1.71,.76,1.71,1.71V30.75H6.83V5.12c0-.94,.76-1.71,1.71-1.71H46.12ZM8.54,0C5.71,0,3.42,2.29,3.42,5.12v29.04H51.25V5.12c0-2.83-2.29-5.12-5.12-5.12H8.54ZM0,35.87H54.67c0,2.83-2.29,5.13-5.12,5.13H5.12c-2.83,0-5.12-2.29-5.12-5.13Z"/>
      <g>
        <path d="M48.53,10.54h-14.34c-1.98,0-3.58,1.6-3.58,3.58v21.5c0,1.98,1.6,3.58,3.58,3.58h14.34c1.98,0,3.58-1.6,3.58-3.58V14.12c0-1.98-1.6-3.58-3.58-3.58Zm1.8,25.09c0,.99-.81,1.8-1.8,1.8h-14.34c-.99,0-1.8-.81-1.8-1.8V14.12c0-.99,.81-1.8,1.8-1.8h14.34c.99,0,1.8,.81,1.8,1.8v21.5Z"/>
        <rect x="32.4" y="12.33" width="17.93" height="25.09" rx="1.8" ry="1.8" style="fill: #fff;"/>
        <path d="M41.36,35.63c.99,0,1.79-.8,1.79-1.79s-.8-1.79-1.79-1.79-1.79,.8-1.79,1.79,.8,1.79,1.79,1.79Z"/>
      </g>
      <g>
        <path d="M34.76,24.37h-8.49c-1.57,0-2.83,1.26-2.83,2.82v16.98c0,1.56,1.26,2.83,2.83,2.83h8.49c1.56,0,2.82-1.27,2.82-2.83V27.19c0-1.56-1.26-2.82-2.82-2.82Zm1.41,19.8c0,.79-.64,1.42-1.41,1.42h-8.49c-.79,0-1.42-.64-1.42-1.42V27.19c0-.78,.64-1.41,1.42-1.41h8.49c.78,0,1.41,.64,1.41,1.41v16.98Z"/>
        <path d="M34.76,25.78h-8.49c-.79,0-1.42,.64-1.42,1.41v16.98c0,.79,.64,1.42,1.42,1.42h8.49c.78,0,1.41-.64,1.41-1.42V27.19c0-.78-.64-1.41-1.41-1.41Zm-4.24,18.39c-.79,0-1.42-.63-1.42-1.41s.64-1.41,1.42-1.41,1.41,.63,1.41,1.41-.64,1.41-1.41,1.41Z" style="fill: #fff;"/>
        <path d="M31.93,42.76c0,.79-.64,1.41-1.41,1.41s-1.42-.63-1.42-1.41,.64-1.41,1.42-1.41,1.41,.63,1.41,1.41Z"/>
      </g>
      <path d="M41.23,18.08c.4,1.45-.24,2.43-1.62,2.79-.45,.12-.91,.13-1.37,.04-.03,0,.61,1.88,1.03,3.12l.28,.82c.06,.18-.04,.38-.23,.44,0,0,0,0,0,0l-.4,.13c-.19,.06-.4-.04-.47-.23l-1.72-5.17c-.47-1.45,.45-2.92,1.74-3.25,1.37-.35,2.3,0,2.76,1.32h0Zm-.59,1.5c.29-.08,.38-.67,.2-1.33-.18-.66-.57-1.13-.86-1.06s-.38,.67-.2,1.33c.18,.66,.57,1.13,.86,1.06Zm2.18-1.5c-.4,1.45,.24,2.43,1.62,2.79,.45,.12,.91,.13,1.37,.04,.03,0-.61,1.88-1.03,3.12l-.28,.82c-.06,.18,.04,.38,.23,.44,0,0,0,0,0,0l.4,.13c.2,.06,.41-.04,.47-.23l1.72-5.17c.47-1.45-.45-2.92-1.74-3.25-1.37-.35-2.3,0-2.76,1.32Zm.59,1.5c-.29-.08-.38-.67-.2-1.33,.18-.66,.57-1.13,.86-1.06,.29,.08,.38,.67,.2,1.33-.18,.66-.57,1.13-.86,1.06Z" style="fill-rule: evenodd;"/>
      <g>
        <circle cx="6.41" cy="32.03" r="1.5" style="fill: #fff;"/>
        <ellipse cx="16.91" cy="37.28" rx="7.5" ry="8.25" style="fill: #fff;"/>
        <g>
          <path d="M11.48,37.93c0-2.49,3.51-4.5,6-4.5v-1.5c-3.31,0-6,2.69-6,6Z"/>
          <path d="M22.46,30.43h3.02c1.38,0,2.5,1.12,2.5,2.5v10c0,1.38-1.12,2.5-2.5,2.5h-3.02c-1.47,.98-3.21,1.5-4.98,1.5-1.77,0-3.5-.52-4.98-1.5H6.48c-1.38,0-2.5-1.12-2.5-2.5v-10c0-1.38,1.12-2.5,2.5-2.5h.5c0-.83,.67-1.5,1.5-1.5h1.5c.83,0,1.5,.67,1.5,1.5h1.02c1.47-.98,3.21-1.5,4.98-1.5,1.84,0,3.55,.55,4.98,1.5Zm-15.48,2.25c0-.41-.34-.75-.75-.75s-.75,.34-.75,.75,.34,.75,.75,.75,.75-.34,.75-.75Zm18,5.25c0-4.14-3.36-7.5-7.5-7.5s-7.5,3.36-7.5,7.5,3.36,7.5,7.5,7.5,7.5-3.36,7.5-7.5Z"/>
        </g>
      </g>
    </g>
  </g>
</svg>