<?xml version="1.0" encoding="UTF-8"?>
<svg id="b" data-name="Layer 2" xmlns="http://www.w3.org/2000/svg" viewBox="0 0 57.1 46.28">
  <g id="c" data-name="Layer 1">
    <g>
      <g>
        <path d="M23.47,13.98c0,2.14-1.45,4.01-3.52,4.55v11.94c2.03,.19,3.52,.88,3.52,1.7,0,.97-2.1,1.76-4.69,1.76s-4.69-.79-4.69-1.76c0-.82,1.5-1.51,3.52-1.7v-11.94c-2.51-.65-4.02-3.21-3.37-5.72,.65-2.51,3.21-4.02,5.72-3.37,2.07,.53,3.52,2.4,3.52,4.54Z"/>
        <path d="M0,31.96v4.03c0,.89,.5,1.7,1.3,2.1l15.38,7.69c1.32,.66,2.88,.66,4.2,0l15.38-7.69c.79-.4,1.3-1.21,1.3-2.1v-4.03c0-.23-.14-.45-.36-.54l-14.9-6.38v2.33l12.27,5.11c.15,.06,.22,.23,.16,.38-.03,.07-.08,.13-.15,.16l-13.94,5.98c-1.18,.51-2.52,.51-3.7,0l-13.94-5.98c-.15-.06-.22-.24-.15-.39,.03-.07,.09-.12,.16-.15l12.27-5.11-.03-2.32L.36,31.43C.14,31.52,0,31.73,0,31.96Z"/>
      </g>
      <g>
        <path d="M53.88,29.74c1.18,0,2.15,.96,2.15,2.15v10.73c0,1.18-.96,2.15-2.15,2.15h-10.73c-1.18,0-2.15-.96-2.15-2.15v-10.73c0-1.18,.96-2.15,2.15-2.15h10.73Zm-10.73-1.07c-1.78,0-3.22,1.44-3.22,3.22v10.73c0,1.78,1.44,3.22,3.22,3.22h10.73c1.78,0,3.22-1.44,3.22-3.22v-10.73c0-1.78-1.44-3.22-3.22-3.22h-10.73Z"/>
        <path d="M45.84,32.96c0,.89-.72,1.61-1.61,1.61s-1.61-.72-1.61-1.61,.72-1.61,1.61-1.61,1.61,.72,1.61,1.61Zm8.58,8.58c0,.89-.72,1.61-1.61,1.61s-1.61-.72-1.61-1.61,.72-1.61,1.61-1.61,1.61,.72,1.61,1.61Zm-4.29-4.29c0,.89-.72,1.61-1.61,1.61s-1.61-.72-1.61-1.61,.72-1.61,1.61-1.61,1.61,.72,1.61,1.61Z"/>
      </g>
      <path d="M39.73,1.83c-.19-.08-.41-.08-.6,0l-9.61,4.21,9.91,4.34,9.91-4.34L39.73,1.83Zm10.97,5.51l-10.46,4.58v13.96l10.46-4.58V7.34h0Zm-12.07,18.55V11.92l-10.46-4.58v13.96l10.46,4.58Zm-.09-25.69c.58-.25,1.22-.25,1.79,0l11.48,5.03c.31,.13,.51,.46,.51,.82v15.27c0,.72-.4,1.37-1.01,1.64l-11.57,5.07c-.19,.08-.41,.08-.6,0l-11.57-5.07c-.61-.27-1.01-.91-1.01-1.64V6.03c0-.36,.2-.68,.51-.82L38.54,.19Z"/>
    </g>
  </g>
</svg>