<?xml version="1.0" encoding="UTF-8"?>
<svg id="b" data-name="Layer 2" xmlns="http://www.w3.org/2000/svg" viewBox="0 0 46.53 47.95">
  <g id="c" data-name="Layer 1">
    <g>
      <path d="M7.41,41.54c.07-1.45,.13-2.74,.2-4.1-.27-.08-.53-.16-.96-.28-.11-1.64-.26-3.31-.32-4.99-.01-.33,.22-.78,.49-.99,2.74-2.21,6.74-1.87,9.12,.75,2.38,2.62,2.36,6.64-.07,9.16-.19,.19-.47,.42-.71,.42-2,.04-4,.02-6,.03-.54,0-1.09,0-1.74,0Z"/>
      <path d="M0,38.16c.7,.08,.74-.26,.88-.78,.7-2.66,.21-5.36,.38-8.04,.06-.99,.49-1.82,1.24-2.51,.66-.6,1.29-.57,1.79,.08,.55,.71,.96,1.52,1.47,2.37,2.02-1.42,4.43-2.01,7.07-1.45,1.88,.4,3.45,1.33,4.73,2.76,2.83,3.13,2.91,6.75,.19,11.74,.53,.03,1.04,.06,1.52,.09,.34,1.9-.62,3.3-2.36,3.34-3.16,.06-6.33,.01-9.49,0-.08,0-.16-.05-.28-.08,.08-1.06,.15-2.12,.23-3.3,.55,0,1.06,0,1.58,0,2.21,0,4.41-.02,6.62,.01,.61,0,1.03-.19,1.43-.64,2.71-3.07,2.61-7.76-.26-10.79-2.8-2.95-7.55-3.31-10.68-.77-.29,.24-.53,.71-.55,1.08-.06,1.51-.08,3.02,0,4.53,.04,.73,.35,1.44,.58,2.29,.1,.03,.36,.1,.66,.18-.12,2.23-.23,4.42-.37,6.62-.04,.58-.39,.88-.98,.88-1.34,0-2.67,0-4.01,0-.63,0-.98-.33-1.02-.95-.13-2.17-.24-4.34-.36-6.65Zm2.13-1.78h2.42v-7.12c-.83,.47-1.6,.91-2.42,1.37v5.75Zm8.9,7.28c-.43,0-.87-.03-1.29,.02-.15,.02-.28,.22-.42,.35,.14,.14,.28,.4,.44,.41,.8,.04,1.61,.04,2.41,0,.14,0,.28-.23,.42-.35-.14-.14-.27-.38-.44-.41-.36-.06-.74-.02-1.12-.02Z"/>
      <g>
        <path d="M16.96,16.11q1.82-1.62,4.02-.43c1.04,.57,2.08,1.13,3.12,1.69,.93,.5,1.25,1.19,.87,2.23-.98,2.63-2.85,4.25-5.56,4.91-.93,.23-1.61-.05-1.99-.98-.68-1.7-1.41-3.38-2.04-5.1-.12-.32,.08-.86,.31-1.16,.34-.45,.83-.78,1.26-1.16Z"/>
        <path d="M15.2,11.33c-.99,.88-1.84,1.64-2.81,2.51-.62-.77-1.21-1.52-1.81-2.26-2.23-2.78-4.46-5.56-6.69-8.34-.11-.14-.22-.29-.33-.43-.49-.6-.89-1.27-.17-1.89,.69-.61,1.31-.21,1.87,.36,2.09,2.14,4.2,4.26,6.3,6.38,1.19,1.2,2.38,2.39,3.65,3.67Z"/>
        <path d="M17.77,13.94l-3.12,2.77c-.53-.67-1.02-1.3-1.56-1.98l2.91-2.59c.59,.6,1.13,1.16,1.76,1.8Z"/>
      </g>
      <path d="M2.94,38v-5.75c.82-.47,1.59-.9,2.42-1.37v7.12H2.94Z" style="fill: #fff;"/>
      <path d="M11.03,43.67c.37,0,.76-.04,1.12,.02,.16,.03,.29,.27,.44,.41-.14,.12-.27,.34-.42,.35-.8,.03-1.61,.04-2.41,0-.15,0-.29-.27-.44-.41,.14-.12,.27-.33,.42-.35,.43-.05,.86-.02,1.29-.02Z" style="fill: #fff;"/>
      <g>
        <path d="M43.3,40.07c-1.31-.11-2.15-1.38-1.78-2.64,.28-.95,1.12-1.6,2.17-1.66,1.36-.09,2.46,.77,2.75,2.18,.28,1.37-.1,2.58-.95,3.65-.83,1.06-1.95,1.72-3.2,2.17-.98,.35-2.01,.52-3.04,.61-3.84,.33-7.47-.39-10.91-2.12-2.81-1.41-4.69-3.65-5.81-6.55-1.13-2.93-1.18-5.91-.35-8.92,.57-2.04,1.48-3.93,2.59-5.72,1.17-1.87,2.53-3.6,3.93-5.3,1.21-1.48,2.45-2.94,3.57-4.5,1.27-1.76,2.21-3.66,2.65-5.79,.37-1.78,.47-3.57,.19-5.37,0-.03,0-.06,0-.12,.07,.05,.12,.08,.17,.12,1.54,1.18,2.5,2.74,3.05,4.58,.28,.93,.41,1.89,.53,2.84,.1,.82,.23,1.63,.54,2.4,.46,1.14,1.24,2.01,2.25,2.68,.27,.18,.55,.34,.82,.53,.23,.17,.47,.35,.66,.57,.39,.44,.46,.95,.19,1.47-.15,.29-.37,.54-.58,.79-.12,.15-.29,.27-.43,.41-.36,.36-.36,.69,0,1.06,.17,.17,.35,.33,.53,.5,.19,.18,.31,.4,.33,.66,.03,.32-.06,.6-.27,.83-.11,.12-.23,.22-.33,.35-.2,.23-.2,.48-.01,.72,.09,.12,.2,.23,.31,.34,.25,.27,.31,.58,.2,.91-.07,.21-.16,.41-.25,.61-.22,.46-.25,.91-.05,1.38,.14,.34,.28,.68,.41,1.02,.15,.38,.24,.77,.2,1.19-.08,.75-.47,1.27-1.14,1.59-.49,.24-1.02,.36-1.55,.4-.77,.06-1.54,.08-2.32,.14-1.27,.09-2.5,.33-3.66,.88-3.35,1.61-4.07,6.01-1.48,8.64,.04,.04,.1,.06,.15,.09l-.06,.07c-.29-.14-.59-.28-.88-.43-2.03-1.13-3.54-2.72-4.38-4.9-.52-1.35-.68-2.76-.59-4.21,.12-2.05,.73-3.97,1.54-5.84,.73-1.68,1.61-3.28,2.47-4.89,.57-1.07,1.14-2.14,1.55-3.29,.12-.36,.2-.73,.3-1.09,.01-.05,.02-.11,.03-.21-.03,.04-.05,.05-.05,.07-.68,1.78-1.68,3.39-2.75,4.95-.83,1.21-1.69,2.39-2.43,3.66-1.01,1.73-1.83,3.54-2.27,5.5-.59,2.6-.46,5.15,.54,7.63,.6,1.48,1.59,2.68,2.79,3.72,2.05,1.78,4.45,2.83,7.12,3.25,1.6,.25,3.2,.29,4.81,.1,.93-.11,1.83-.32,2.65-.79,.69-.39,1.21-.92,1.42-1.71,.1-.4,.11-.8,0-1.2-.19-.69-.84-1.12-1.54-1.03-.65,.08-1.16,.68-1.17,1.39,0,.67,.24,1.22,.84,1.62Z"/>
        <path d="M34.34,47.7c-2.07,.04-4.11-.22-6.1-.77-2.74-.76-5.26-1.95-7.54-3.66-2.46-1.85-4.01-4.31-4.81-7.26-.97-3.54-.66-7,.76-10.37,.91-2.17,2.18-4.13,3.67-5.94,1.45-1.77,3.09-3.38,4.76-4.94,1.57-1.48,3.15-2.94,4.71-4.44,.9-.86,1.72-1.81,2.44-2.82,.02-.02,.04-.05,.08-.05-.05,.1-.11,.2-.16,.3-.8,1.45-1.79,2.76-2.85,4.02-1.37,1.62-2.76,3.21-4.13,4.83-1.52,1.79-2.95,3.65-4.16,5.67-1.26,2.11-2.24,4.33-2.73,6.74-.91,4.51-.07,8.67,2.67,12.4,1.22,1.66,2.82,2.88,4.64,3.81,2.68,1.37,5.52,2.19,8.52,2.45,.08,0,.16,.02,.24,.03Z" style="stroke: #fff; stroke-miterlimit: 10; stroke-width: .5px;"/>
      </g>
    </g>
  </g>
</svg>