<?xml version="1.0" encoding="UTF-8"?>
<svg id="b" data-name="Layer 2" xmlns="http://www.w3.org/2000/svg" viewBox="0 0 54.33 46.58">
  <g id="c" data-name="Layer 1">
    <g>
      <path d="M23.18,19.61c.16-1.57,.27-2.67,.39-3.79,.9-.12,1.63-.21,2.74-.35,0-.85-.01-1.71,0-2.58,.03-1.99,1.02-3.05,3.04-3.08,1.12-.02,2.33,.25,3.34-.09,.88-.3,2.04-1.17,2.19-1.95,.27-1.39-.86-2.07-2.28-2.07-5.24,0-10.48,.03-15.72-.02-2.22-.02-3.56-1.48-3.15-3.37C14.1,.65,15.28,.01,16.88,.01c3.44,0,6.89-.04,10.33,.04,.57,.01,1.12,.6,1.68,.92-.54,.26-1.08,.72-1.62,.73-3.22,.07-6.44-.03-9.66,.09-.73,.03-1.43,.68-2.15,1.04,.71,.37,1.41,1.05,2.12,1.07,4.87,.1,9.73,.04,14.6,.06,2.95,.01,4.57,1.37,4.58,3.74,0,2.37-1.67,3.79-4.53,3.83-.3,0-.6,0-.9,0-3.46,0-3.61,.18-3.11,3.75q2.55,.71,2.95,4.2c2.9,0,5.86,.01,8.81,0,4.52-.03,8.39,1.44,11.29,4.99,4.32,5.28,4.02,12.9-.65,17.87-4.64,4.94-12.21,5.64-17.81,1.63-2.68-1.92-8.62-1.92-11.3,0-4.72,3.38-10.79,3.48-15.59,.26C1.25,41.1-1,35.15,.42,29.64c1.4-5.44,5.99-9.53,11.69-9.97,3.63-.28,7.3-.05,11.07-.05Zm4.21,1.67s0,.03,0,.05c-4.94,0-9.88-.16-14.81,.04-4.9,.2-8.91,3.61-10.32,8.31-1.39,4.64,.21,9.62,4.08,12.66,3.78,2.97,9.32,3.62,13.18,.67,2.62-2,5.19-2.21,8.1-2.11,.82,.03,1.68-.14,2.46,.04,1.09,.26,2.28,.55,3.16,1.19,2.79,2.03,5.8,3.11,9.25,2.55,6.2-1,10.38-6.19,10.03-12.35-.34-6.05-5-10.75-11.21-11.01-4.63-.19-9.28-.04-13.91-.04Zm1.69-3.83h-3.73c-.07,.35-.19,.63-.18,.9,.01,.34,.13,.68,.19,.98q3.67,.29,3.72-1.89Z"/>
      <path d="M27.4,21.28c4.64,0,9.28-.15,13.91,.04,6.22,.26,10.87,4.96,11.21,11.01,.35,6.16-3.83,11.35-10.03,12.35-3.45,.56-6.46-.51-9.25-2.55-.88-.64-2.07-.93-3.16-1.19-.78-.18-1.64-.01-2.46-.04-2.91-.09-5.48,.12-8.1,2.11-3.86,2.95-9.41,2.3-13.18-.67-3.87-3.04-5.47-8.02-4.08-12.66,1.41-4.7,5.43-8.11,10.32-8.31,4.93-.2,9.87-.04,14.81-.04,0-.02,0-.03,0-.05Zm-18.18,14.71c1.48,1.48-1.16,4.42,2.24,4.72,1.1,.1,2.92,.31,3.2-.2,.73-1.3,.77-2.99,1.04-4.27,1.37-1.38,4.56,1.38,4.57-2.41,0-1.03,.2-2.73-.27-2.97-1.29-.65-2.89-.69-4.28-.95-1.3-1.29,1.34-4.25-2.04-4.56-1.1-.1-2.9-.3-3.21,.23-.74,1.29-.79,2.97-1.08,4.32-1.49,1.1-4.69-1.37-4.58,2.61,.08,2.96-.02,2.97,4.4,3.49Zm34.4-8.79c0-1.52-1.36-2.87-2.86-2.84-1.53,.03-2.83,1.39-2.73,2.93,.11,1.66,1.08,2.57,2.72,2.67,1.56,.1,2.88-1.22,2.88-2.77Zm-8.55,8.62c1.55-.06,2.86-1.43,2.7-2.95-.17-1.63-1.19-2.55-2.8-2.65-1.51-.09-2.83,1.33-2.8,2.87,.03,1.58,1.31,2.79,2.9,2.73Zm11.58,0c1.55,0,2.88-1.34,2.83-2.85-.05-1.5-1.47-2.89-2.96-2.74-1.61,.16-2.59,1.08-2.67,2.75-.07,1.58,1.2,2.84,2.79,2.84Zm-5.81,5.84c1.55-.02,2.91-1.38,2.76-2.89-.15-1.61-1.11-2.6-2.74-2.72-1.53-.11-2.86,1.27-2.86,2.81,0,1.58,1.27,2.83,2.84,2.8Z" style="fill: #fff;"/>
      <path d="M29.09,17.46q-.05,2.18-3.72,1.89c-.06-.3-.18-.64-.19-.98-.01-.28,.1-.56,.18-.9h3.73Z" style="fill: #fff;"/>
      <path d="M9.22,35.99c-4.42-.53-4.31-.53-4.4-3.49-.11-3.98,3.09-1.51,4.58-2.61,.29-1.35,.34-3.03,1.08-4.32,.3-.53,2.11-.33,3.21-.23,3.38,.31,.74,3.27,2.04,4.56,1.38,.26,2.98,.3,4.28,.95,.47,.24,.27,1.94,.27,2.97-.01,3.78-3.2,1.02-4.57,2.41-.27,1.29-.32,2.97-1.04,4.27-.28,.51-2.1,.3-3.2,.2-3.41-.3-.76-3.25-2.24-4.72Zm-2.74-3.4c0,.32-.01,.63-.02,.95,.69,.19,1.41,.62,2.06,.53,2.39-.31,3.24,.62,3,2.99-.06,.59,.71,1.27,1.1,1.91,.35-.6,1.05-1.25,.98-1.81-.3-2.49,.66-3.39,3.12-3.11,.55,.06,1.18-.65,1.78-1-.59-.37-1.21-1.12-1.75-1.06-2.43,.26-3.46-.56-3.15-3.09,.07-.55-.64-1.19-.99-1.79-.39,.57-1.16,1.19-1.09,1.69,.39,2.71-.82,3.46-3.29,3.16-.55-.07-1.17,.4-1.76,.62Z"/>
      <path d="M43.62,27.2c0,1.55-1.32,2.87-2.88,2.77-1.63-.11-2.61-1.01-2.72-2.67-.1-1.55,1.2-2.9,2.73-2.93,1.5-.03,2.87,1.32,2.86,2.84Z"/>
      <path d="M35.07,35.82c-1.59,.06-2.87-1.15-2.9-2.73-.03-1.53,1.29-2.96,2.8-2.87,1.61,.1,2.63,1.02,2.8,2.65,.16,1.52-1.15,2.9-2.7,2.95Z"/>
      <path d="M46.66,35.83c-1.59,0-2.87-1.25-2.79-2.84,.08-1.67,1.06-2.59,2.67-2.75,1.49-.15,2.91,1.24,2.96,2.74,.05,1.5-1.29,2.84-2.83,2.85Z"/>
      <path d="M40.85,41.67c-1.58,.02-2.84-1.22-2.84-2.8,0-1.54,1.34-2.92,2.86-2.81,1.63,.12,2.59,1.1,2.74,2.72,.14,1.51-1.22,2.87-2.76,2.89Z"/>
      <path d="M43.04,27.14c0,1.12-.96,2.08-2.09,2.01-1.18-.08-1.89-.73-1.97-1.94-.07-1.12,.87-2.1,1.98-2.13,1.09-.02,2.08,.96,2.08,2.06Z" style="fill: #fff;"/>
      <path d="M34.93,35.02c-1.15,.04-2.08-.83-2.1-1.98-.02-1.11,.93-2.14,2.03-2.08,1.17,.07,1.9,.74,2.03,1.92,.12,1.1-.83,2.1-1.96,2.14Z" style="fill: #fff;"/>
      <path d="M46.6,35.02c-1.15,0-2.08-.91-2.02-2.05,.05-1.21,.77-1.88,1.93-1.99,1.08-.11,2.11,.9,2.14,1.99,.04,1.09-.93,2.06-2.05,2.06Z" style="fill: #fff;"/>
      <path d="M41.03,40.89c-1.14,.02-2.06-.89-2.06-2.03,0-1.11,.97-2.11,2.08-2.03,1.18,.09,1.87,.8,1.99,1.97,.1,1.09-.88,2.08-2,2.1Z" style="fill: #fff;"/>
      <path d="M6.48,32.59c.59-.22,1.2-.69,1.76-.62,2.47,.29,3.68-.45,3.29-3.16-.07-.5,.71-1.13,1.09-1.69,.35,.6,1.06,1.24,.99,1.79-.31,2.53,.72,3.35,3.15,3.09,.54-.06,1.16,.69,1.75,1.06-.59,.35-1.23,1.06-1.78,1-2.46-.28-3.42,.62-3.12,3.11,.07,.56-.64,1.2-.98,1.81-.39-.64-1.15-1.32-1.1-1.91,.24-2.37-.61-3.29-3-2.99-.65,.08-1.37-.34-2.06-.53,0-.32,.01-.63,.02-.95Z" style="fill: #fff;"/>
    </g>
  </g>
</svg>