<?xml version="1.0" encoding="UTF-8"?>
<svg id="b" data-name="Layer 2" xmlns="http://www.w3.org/2000/svg" viewBox="0 0 37.75 35.22">
  <g id="c" data-name="Layer 1">
    <g>
      <path d="M34.34,32.86v-.03c-.59-1.7-1.06-3.65-1.24-5.47,2.9-2.9,4.65-6.7,4.65-10.85C37.75,7.39,29.3,0,18.88,0S0,7.39,0,16.51s8.45,16.51,18.88,16.51c1.87,.01,3.73-.24,5.53-.72,1.23,.62,3.87,1.75,8.18,2.61,.56,.11,1.12,.21,1.69,.3,.47,.08,.83-.41,.64-.85-.21-.5-.4-1-.58-1.5Zm-2.65-.56c-3.29-.76-5.3-1.64-6.21-2.1-.52-.26-1.11-.33-1.68-.18-1.6,.43-3.26,.65-4.92,.64-9.43,0-16.52-6.62-16.52-14.15S9.45,2.36,18.88,2.36s16.51,6.62,16.51,14.15c0,3.46-1.46,6.68-3.96,9.19-.49,.49-.74,1.19-.68,1.89,.17,1.59,.48,3.17,.94,4.71Z"/>
      <path d="M30.75,27.59c.17,1.59,.48,3.17,.94,4.71-3.29-.76-5.3-1.64-6.21-2.1-.52-.26-1.11-.33-1.68-.18-1.6,.43-3.26,.65-4.92,.64-9.43,0-16.52-6.62-16.52-14.15S9.45,2.36,18.88,2.36s16.51,6.62,16.51,14.15c0,3.46-1.46,6.68-3.96,9.19-.49,.49-.74,1.19-.68,1.89Z" style="fill: #fff;"/>
    </g>
  </g>
</svg>