<svg xmlns="http://www.w3.org/2000/svg" viewBox="0 0 512 512" style="height: 512px; width: 512px;"><path d="M0 0h512v512H0z" fill="#000000" fill-opacity="0.01"></path><g class="" transform="translate(4,2)" style=""><g><path d="M256 16C123.452 16 16 123.452 16 256C16 388.548 123.452 496 256 496C388.548 496 496 388.548 496 256C496 123.452 388.548 16 256 16Z" class="selected" fill="#040404" fill-opacity="1"></path><path d="M247 30.73L247 117.072C211.696 119.542 122.577 148.422 119.967 247L37.605 247C39.993 81.83 189.513 34.292 247 30.73Z" class="" fill="#ffffff" fill-opacity="1"></path><path d="M265 31.604C265.596 31.762 266.148 31.934 266.62 32.124C345.44 63.801 350.95 249.242 343.662 300.176L307.164 277.363C310.65 243.003 306.262 144.716 265 120.486L265 31.604Z" class="" fill="#ffffff" fill-opacity="1"></path><path d="M41.258 265L127.254 265C146.739 280.47 204.584 299.583 294.156 290.46L331.856 314.023C163.39 333.03 61.252 291.425 41.26 265Z" class="" fill="#f8f7f7" fill-opacity="1"></path></g></g></svg>