<?xml version="1.0" encoding="UTF-8" standalone="no"?>
<!-- Created with Inkscape (http://www.inkscape.org/) -->

<svg
   width="62.238235mm"
   height="56.886875mm"
   viewBox="0 0 62.238235 56.886875"
   version="1.1"
   id="svg19"
   inkscape:export-filename="/home/ppp/bitmap.png"
   inkscape:export-xdpi="8"
   inkscape:export-ydpi="8"
   inkscape:version="1.1.2 (0a00cf5339, 2022-02-04)"
   sodipodi:docname="shopico.svg"
   xmlns:inkscape="http://www.inkscape.org/namespaces/inkscape"
   xmlns:sodipodi="http://sodipodi.sourceforge.net/DTD/sodipodi-0.dtd"
   xmlns="http://www.w3.org/2000/svg"
   xmlns:svg="http://www.w3.org/2000/svg">
  <sodipodi:namedview
     id="namedview21"
     pagecolor="#ffffff"
     bordercolor="#666666"
     borderopacity="1.0"
     inkscape:pageshadow="2"
     inkscape:pageopacity="0.0"
     inkscape:pagecheckerboard="0"
     inkscape:document-units="mm"
     showgrid="false"
     inkscape:snap-global="true"
     inkscape:zoom="1.2472578"
     inkscape:cx="145.11836"
     inkscape:cy="66.946866"
     inkscape:window-width="1310"
     inkscape:window-height="704"
     inkscape:window-x="0"
     inkscape:window-y="0"
     inkscape:window-maximized="1"
     inkscape:current-layer="layer2" />
  <defs
     id="defs16">
    <pattern
       patternUnits="userSpaceOnUse"
       width="235.23118"
       height="215.00551"
       patternTransform="translate(133.68947,25.110234)"
       id="pattern10206">
      <path
         style="fill:#000000;stroke-width:2.55686"
         d="m 20.640461,208.26854 c -4.924218,-6.26013 -5.299287,-10.06043 -5.299287,-53.69408 v -46.95711 h 9.658522 c 8.745615,0 19.849055,-5.07601 23.844057,-10.900478 0.848005,-1.236332 7.11385,1.285796 13.924112,5.604728 17.928102,11.36967 38.179035,9.55244 50.746905,-4.553807 l 4.84817,-5.441613 6.41896,6.418949 c 7.88969,7.889741 15.26993,9.890341 30.2547,8.201341 7.7898,-0.87803 13.85242,-3.50935 18.62873,-8.085354 6.39393,-6.125806 7.41093,-6.385769 10.48607,-2.680441 5.42959,6.542265 16.8401,11.436675 26.66267,11.436675 h 9.07597 v 46.95711 c 0,43.63365 -0.37493,47.43395 -5.29931,53.69408 l -5.29928,6.73697 H 117.61561 25.939774 Z m 88.026129,-43.12182 v -43.46663 l -28.764675,-0.72296 -28.764703,-0.72296 v 43.12424 c 0,23.71832 0.803664,43.92788 1.785936,44.91016 0.982273,0.98227 13.926376,1.46167 28.764703,1.06535 l 26.978739,-0.72055 z m 77.47518,-15.28768 c 1.30654,-30.30143 1.77925,-29.77105 -25.77131,-28.91315 l -23.57839,0.7342 -0.75421,20.22888 c -0.41484,11.12589 -0.14664,21.81226 0.596,23.74749 1.0411,2.71312 6.77423,3.35017 25.04439,2.78286 l 23.69416,-0.73574 z M 12.209382,96.08749 C 5.3637392,92.248337 0,85.031522 0,79.65997 c 0,-1.74703 9.175971,-2.724948 25.568606,-2.724948 15.067941,0 25.568606,1.0335 25.568606,2.516519 0,1.384089 -3.164111,6.0264 -7.031365,10.316243 -8.484699,9.411874 -21.710306,12.032286 -31.896465,6.319706 z m 53.335385,-1.440022 c -3.972389,-3.124698 -6.73697,-7.846209 -6.73697,-11.505876 0,-6.176788 0.128844,-6.20657 26.847058,-6.20657 h 26.847025 v 6.429732 c 0,14.664824 -32.676115,22.516146 -46.957113,11.282714 z m 67.150893,-0.541497 c -4.77834,-3.212436 -9.05559,-8.390079 -9.50494,-11.505872 -0.79676,-5.524135 -0.18406,-5.665077 24.63118,-5.665077 23.04986,0 25.57066,0.468245 26.74749,4.968446 2.07892,7.949922 -12.3117,18.043298 -25.72524,18.043298 -4.10332,0 -11.37014,-2.628359 -16.14849,-5.840795 z m 66.7395,4.035073 c -6.7593,-2.470897 -15.34118,-11.722296 -15.34118,-16.538 0,-4.208258 2.51834,-4.668022 25.56862,-4.668022 16.89075,0 25.56858,0.954557 25.56858,2.812543 0,1.5469 -3.91196,6.724546 -8.69333,11.505876 -8.47616,8.476184 -16.90053,10.617059 -27.10269,6.887603 z M 2.5878803,66.068358 C 2.8256504,61.165835 26.282105,3.9105902 28.674569,2.3925732 30.481992,1.2457814 39.295752,0.28987465 48.260742,0.26834268 L 64.560737,0.22918677 63.224111,7.2605518 C 62.488947,11.127806 59.777484,26.085439 57.198618,40.499745 L 52.509785,66.707579 H 27.533329 c -13.737056,0 -24.9624981,-0.287622 -24.9454487,-0.639221 z m 59.7502827,-3.83529 c 0.724929,-2.460979 2.616748,-11.953323 4.204022,-21.094103 1.587276,-9.14078 4.043508,-22.084887 5.45825,-28.764686 L 74.572724,0.22919055 H 93.537286 112.50188 V 33.468384 66.707575 H 86.760979 c -23.312704,0 -25.616576,-0.422094 -24.422816,-4.474507 z M 122.72931,33.468384 V 0.22919055 h 18.73134 18.73138 l 4.52988,26.20782445 c 2.49139,14.414302 5.13668,29.371937 5.87841,33.239191 l 1.34857,7.031369 H 147.3391 122.72931 Z m 56.51516,19.815673 c -1.46037,-7.38294 -4.28995,-22.392143 -6.28792,-33.35379 L 169.3239,0 185.01872,0.75380787 200.71359,1.5076195 213.81301,28.51563 c 20.23628,41.722568 20.94184,38.191945 -7.63211,38.191945 h -24.28123 z"
         id="path248" />
    </pattern>
  </defs>
  <g
     inkscape:label="Layer 1"
     inkscape:groupmode="layer"
     id="layer1"
     transform="translate(-75.989066,-25.826901)">
    <path
       id="rect10209"
       style="fill:none;stroke-width:0.264583"
       d="M 73.974792,9.4876785 V 66.374645 H 136.21285 V 9.4876785 Z" />
  </g>
  <g
     inkscape:groupmode="layer"
     id="layer2"
     inkscape:label="Layer 2">
    <g
       id="g12696">
      <path
         style="fill:#000000;stroke-width:0.676503"
         d="m 123.75736,40.138466 c -0.38639,-1.953403 -1.13505,-5.924588 -1.66368,-8.824857 l -0.96114,-5.273216 4.15259,0.199445 4.1526,0.199446 3.46588,7.145869 c 5.35418,11.039096 5.54086,10.104952 -2.01932,10.104952 h -6.42441 z"
         id="path12597"
         transform="translate(-75.989066,-25.826901)" />
      <path
         style="fill:#000000;stroke-width:0.676503"
         d="m 108.8044,34.895569 v -8.794536 h 4.95599 4.95601 l 1.19853,6.934153 c 0.65919,3.813784 1.35908,7.771325 1.55533,8.794536 l 0.35681,1.860383 h -6.51134 -6.51133 z"
         id="path12595"
         transform="translate(-75.989066,-25.826901)" />
      <path
         style="fill:#000000;stroke-width:0.676503"
         d="m 92.825908,42.506225 c 0.1918,-0.651134 0.69235,-3.16265 1.11231,-5.581148 0.41997,-2.418498 1.06985,-5.843293 1.44417,-7.610656 l 0.68059,-3.213388 h 5.017702 5.01771 v 8.794536 8.794536 h -6.810612 c -6.16815,0 -6.77772,-0.111679 -6.46187,-1.18388 z"
         id="path12593"
         transform="translate(-75.989066,-25.826901)" />
      <path
         style="fill:#000000;stroke-width:0.676503"
         d="m 77.016978,43.520979 c 0.0629,-1.297126 6.26909,-16.445909 6.9021,-16.847551 0.47821,-0.303422 2.81019,-0.556339 5.18217,-0.562036 l 4.31271,-0.01036 -0.35364,1.860382 c -0.19452,1.023211 -0.91192,4.980751 -1.59425,8.794536 l -1.24059,6.934156 h -6.60835 c -3.6346,0 -6.60466,-0.0761 -6.60015,-0.169127 z"
         id="path12591"
         transform="translate(-75.989066,-25.826901)" />
      <path
         style="fill:#000000;stroke-width:0.676503"
         d="m 129.09948,52.006877 c -1.7884,-0.653758 -4.05902,-3.101524 -4.05902,-4.375679 0,-1.113435 0.66631,-1.235081 6.76502,-1.235081 4.46901,0 6.76502,0.25256 6.76502,0.744152 0,0.409284 -1.03504,1.779203 -2.30011,3.044263 -2.24265,2.242657 -4.4716,2.809097 -7.17091,1.822345 z"
         id="path12589"
         transform="translate(-75.989066,-25.826901)" />
      <path
         style="fill:#000000;stroke-width:0.676503"
         d="m 111.44132,50.939264 c -1.26425,-0.849957 -2.39595,-2.219875 -2.51484,-3.044262 -0.21081,-1.461594 -0.0487,-1.498885 6.51699,-1.498885 6.09861,0 6.76557,0.12389 7.07694,1.314568 0.55005,2.103417 -3.25747,4.773956 -6.80647,4.773956 -1.08567,0 -3.00835,-0.69542 -4.27262,-1.545377 z"
         id="path12587"
         transform="translate(-75.989066,-25.826901)" />
      <path
         style="fill:#000000;stroke-width:0.676503"
         d="m 93.674318,51.082535 c -1.05103,-0.826743 -1.78249,-2.075976 -1.78249,-3.044263 0,-1.634275 0.0341,-1.642155 7.10329,-1.642155 h 7.103272 v 1.7012 c 0,3.880068 -8.645552,5.957397 -12.424072,2.985218 z"
         id="path12585"
         transform="translate(-75.989066,-25.826901)" />
      <path
         style="fill:#000000;stroke-width:0.676503"
         d="m 79.562668,51.463541 c -1.81125,-1.015776 -3.2304,-2.925225 -3.2304,-4.346448 0,-0.462235 2.4278,-0.720976 6.76502,-0.720976 3.98673,0 6.76503,0.273447 6.76503,0.665829 0,0.366207 -0.83717,1.594485 -1.86038,2.729506 -2.24491,2.490225 -5.74419,3.183543 -8.43927,1.672089 z"
         id="path12583"
         transform="translate(-75.989066,-25.826901)" />
      <path
         style="fill:#000000;stroke-width:0.676503"
         d="m 81.183512,81.166007 c -1.30287,-1.65633 -1.4021,-2.66183 -1.4021,-14.206561 v -12.42407 h 2.55548 c 2.31394,0 5.25173,-1.34303 6.30874,-2.88409 0.22437,-0.32711 1.88221,0.3402 3.68409,1.48292 4.74348,3.00823 10.101538,2.52742 13.426778,-1.20486 l 1.28275,-1.43976 1.69835,1.69835 c 2.08747,2.08749 4.04016,2.61682 8.00488,2.16994 2.06106,-0.23232 3.66512,-0.92852 4.92885,-2.13926 1.69173,-1.62078 1.96081,-1.68956 2.77444,-0.70919 1.43658,1.73097 4.45561,3.02595 7.05449,3.02595 h 2.40135 v 12.42407 c 0,11.544731 -0.0992,12.550231 -1.40211,14.206561 l -1.4021,1.78248 H 106.84153 82.585622 Z"
         id="path12064"
         transform="translate(-75.989066,-25.826901)" />
      <path
         style="fill:#ffffff;stroke-width:0.676503"
         d="m 49.593202,39.863696 c 0.34569,-8.017253 0.47076,-7.876924 -6.81866,-7.649938 l -6.23845,0.194257 -0.19955,5.352225 c -0.10976,2.943725 -0.0388,5.77116 0.1577,6.28319 0.27546,0.717846 1.79234,0.886399 6.62633,0.736298 l 6.26907,-0.194664 z"
         id="path12581" />
      <path
         style="fill:#ffffff;stroke-width:0.676503"
         d="M 29.094572,43.908561 V 32.408015 l -7.61065,-0.191283 -7.61067,-0.191283 v 11.409955 c 0,6.275472 0.21264,11.622587 0.47253,11.882477 0.2599,0.2599 3.68469,0.38674 7.61067,0.28188 l 7.13813,-0.19065 z"
         id="path12579" />
    </g>
  </g>
</svg>
